<svg width="70" height="64" viewBox="0 0 70 64" fill="none" xmlns="http://www.w3.org/2000/svg">
<path d="M67.6556 12.472H65.9733C64.8825 12.472 63.9661 13.2235 63.7054 14.2364H63.349V6.20501C63.349 5.11331 62.463 4.22525 61.3739 4.22525H58.8311V2.09652C58.8311 0.940543 57.893 0 56.7396 0H51.3393C50.7728 0 50.3139 0.460199 50.3139 1.02784C50.3139 1.59548 50.7728 2.05568 51.3393 2.05568H56.7396C56.762 2.05568 56.7804 2.07405 56.7804 2.09652V22.1076H56.5996C55.8738 22.1076 55.2393 22.499 54.8897 23.0811H15.1104C14.7609 22.499 14.1264 22.1076 13.4005 22.1076H13.2198V2.09652C13.2198 2.07405 13.2381 2.05568 13.2605 2.05568H46.9696C47.5361 2.05568 47.995 1.59548 47.995 1.02784C47.995 0.460199 47.5361 0 46.9696 0H13.2605C12.1072 0 11.169 0.940543 11.169 2.09652V4.22511H8.62634C7.53725 4.22511 6.65132 5.11317 6.65132 6.20487V14.2363H6.29489C6.03417 13.2234 5.11775 12.4718 4.02702 12.4718H2.34457C1.05177 12.472 0 13.5263 0 14.8222V23.5775C0 24.8734 1.05177 25.9276 2.34457 25.9276C2.34457 25.9276 4.22444 25.9212 4.32069 25.909V35.9969C4.32069 36.5646 4.77965 37.0248 5.34607 37.0248C5.91249 37.0248 6.37145 36.5646 6.37145 35.9969V24.1633H13.3465C13.3759 32.8904 20.4677 39.9811 29.1805 39.9811H40.8197C49.5325 39.9811 56.6244 32.8904 56.6536 24.1633H63.6287V43.6522H6.37159V40.3773C6.37159 39.8097 5.91263 39.3495 5.34621 39.3495C4.77979 39.3495 4.32083 39.8097 4.32083 40.3773V44.68C4.32083 44.787 4.3375 44.8934 4.37018 44.9952L9.51295 60.9984C10.09 62.7937 11.742 64 13.6235 64H56.3766C58.2583 64 59.9102 62.7937 60.4872 60.9984L65.63 44.9952C65.6626 44.8934 65.6793 44.787 65.6793 44.68V25.9071C65.7758 25.9193 67.6554 25.9276 67.6554 25.9276C68.9482 25.9276 70 24.8734 70 23.5775V14.8222C70.0003 13.5263 68.9485 12.472 67.6556 12.472ZM6.37159 16.2921H11.1692V22.1078H6.37159V16.2921ZM8.70194 6.2808H11.169V14.2363H8.70194V6.2808ZM4.02688 23.872H2.34457C2.18242 23.872 2.05077 23.7399 2.05077 23.5775V14.8222C2.05077 14.6598 2.18256 14.5276 2.34457 14.5276H4.02688C4.18903 14.5276 4.32069 14.6598 4.32069 14.8222V23.5775C4.32083 23.7399 4.18903 23.872 4.02688 23.872ZM61.2982 6.2808V14.2363H58.8311V6.2808H61.2982ZM53.9466 28.3231L42.5151 25.1368H54.5648C54.4836 26.2397 54.2721 27.3066 53.9466 28.3231ZM38.6639 25.1368C38.2209 26.6341 36.8358 27.7294 35.2004 27.7294H34.7998C33.1644 27.7294 31.7793 26.6341 31.3364 25.1368H38.6639ZM34.7998 29.7851H35.2004C35.2233 29.7851 35.2457 29.7836 35.2684 29.7833L37.1642 37.9254H32.8362L34.732 29.7833C34.7546 29.7836 34.777 29.7851 34.7998 29.7851ZM15.4353 25.1368H27.485L16.0535 28.3231C15.7281 27.3066 15.5166 26.2397 15.4353 25.1368ZM16.831 30.2401L29.7353 26.6433C29.8941 26.9611 30.0814 27.2621 30.2947 27.5425L22.1915 36.0131C19.8946 34.6528 18.0238 32.6442 16.831 30.2401ZM24.1244 36.9627L31.8115 28.9272C32.0978 29.1063 32.4013 29.2599 32.7186 29.3861L30.7303 37.9256H29.1807C27.3964 37.9254 25.6906 37.5839 24.1244 36.9627ZM39.2701 37.9254L37.2818 29.386C37.5991 29.2598 37.9027 29.1061 38.1889 28.927L45.876 36.9626C44.3098 37.5838 42.6038 37.9254 40.8198 37.9254H39.2701ZM47.8087 36.0131L39.7054 27.5425C39.9187 27.2621 40.106 26.9611 40.2649 26.6433L53.1691 30.2401C51.9765 32.6442 50.1057 34.6528 47.8087 36.0131ZM58.8313 22.1076V16.292H63.6288V22.1076H58.8313ZM58.5353 60.368C58.2322 61.3108 57.3647 61.9442 56.3766 61.9442H13.6235C12.6353 61.9442 11.768 61.3108 11.4649 60.368L6.75372 45.7078H8.90825L13.2365 59.1759C13.3729 59.6006 13.7673 59.8885 14.2125 59.8885H46.9696C47.5361 59.8885 47.995 59.4283 47.995 58.8607C47.995 58.293 47.5361 57.8328 46.9696 57.8328H14.9595L11.0628 45.7077H58.9375L55.0408 57.8328H51.3394C50.773 57.8328 50.314 58.293 50.314 58.8607C50.314 59.4283 50.773 59.8885 51.3394 59.8885H55.7878C56.2329 59.8885 56.6274 59.6006 56.7638 59.1759L61.0922 45.7078H63.2467L58.5353 60.368ZM67.9495 23.5775C67.9495 23.7399 67.8177 23.872 67.6557 23.872H65.9734C65.8112 23.872 65.6796 23.7399 65.6796 23.5775V14.8222C65.6796 14.6598 65.8114 14.5276 65.9734 14.5276H67.6557C67.8178 14.5276 67.9495 14.6598 67.9495 14.8222V23.5775Z" fill="url(#paint0_radial)"/>
<path d="M20.1806 7.1881C20.7471 7.1881 21.206 6.7279 21.206 6.16025C21.206 5.5926 20.7471 5.1324 20.1806 5.1324H18.6371C18.0707 5.1324 17.6117 5.5926 17.6117 6.16025C17.6117 6.7279 18.0707 7.1881 18.6371 7.1881H20.1806Z" fill="url(#paint1_radial)"/>
<path d="M49.8197 7.1881H51.3633C51.9297 7.1881 52.3887 6.7279 52.3887 6.16025C52.3887 5.5926 51.9297 5.1324 51.3633 5.1324H49.8197C49.2533 5.1324 48.7943 5.5926 48.7943 6.16025C48.7943 6.7279 49.2534 7.1881 49.8197 7.1881Z" fill="url(#paint2_radial)"/>
<path d="M44.2034 7.18808C44.7698 7.18808 45.2288 6.72788 45.2288 6.16024C45.2288 5.5926 44.7698 5.1324 44.2034 5.1324H24.4254C23.859 5.1324 23.4 5.5926 23.4 6.16024C23.4 6.72788 23.859 7.18808 24.4254 7.18808H44.2034Z" fill="url(#paint3_radial)"/>
<path d="M51.3631 10.8644H17.2653C16.6988 10.8644 16.2399 11.3246 16.2399 11.8922C16.2399 12.4599 16.6988 12.9201 17.2653 12.9201H51.3631C51.9295 12.9201 52.3884 12.4599 52.3884 11.8922C52.3884 11.3246 51.9295 10.8644 51.3631 10.8644Z" fill="url(#paint4_radial)"/>
<path d="M51.3631 16.5975H17.2653C16.6988 16.5975 16.2399 17.0577 16.2399 17.6254C16.2399 18.193 16.6988 18.6532 17.2653 18.6532H51.3631C51.9295 18.6532 52.3884 18.193 52.3884 17.6254C52.3884 17.0577 51.9295 16.5975 51.3631 16.5975Z" fill="url(#paint5_radial)"/>
<path d="M48.2497 54.0615H21.7508C21.1844 54.0615 20.7255 54.5217 20.7255 55.0893C20.7255 55.657 21.1844 56.1172 21.7508 56.1172H48.2497C48.8161 56.1172 49.2751 55.657 49.2751 55.0893C49.2751 54.5217 48.8161 54.0615 48.2497 54.0615Z" fill="url(#paint6_radial)"/>
<path d="M53.0127 54.0615H52.2084C51.6419 54.0615 51.183 54.5217 51.183 55.0893C51.183 55.657 51.6419 56.1172 52.2084 56.1172H53.0127C53.5791 56.1172 54.0381 55.657 54.0381 55.0893C54.0381 54.5217 53.5791 54.0615 53.0127 54.0615Z" fill="url(#paint7_radial)"/>
<path d="M17.7922 54.0615H16.9879C16.4215 54.0615 15.9625 54.5217 15.9625 55.0893C15.9625 55.657 16.4215 56.1172 16.9879 56.1172H17.7922C18.3587 56.1172 18.8176 55.657 18.8176 55.0893C18.8176 54.5217 18.3585 54.0615 17.7922 54.0615Z" fill="url(#paint8_radial)"/>
<path d="M19.5267 50.3566H18.2508C17.6844 50.3566 17.2255 50.8168 17.2255 51.3844C17.2255 51.9521 17.6844 52.4123 18.2508 52.4123H19.5267C20.0931 52.4123 20.5521 51.9521 20.5521 51.3844C20.5521 50.8168 20.0931 50.3566 19.5267 50.3566Z" fill="url(#paint9_radial)"/>
<path d="M22.631 51.3844C22.631 51.9521 23.0899 52.4123 23.6564 52.4123H24.9322C25.4987 52.4123 25.9576 51.9521 25.9576 51.3844C25.9576 50.8168 25.4987 50.3566 24.9322 50.3566H23.6564C23.0901 50.3566 22.631 50.8167 22.631 51.3844Z" fill="url(#paint10_radial)"/>
<path d="M28.037 51.3844C28.037 51.9521 28.496 52.4123 29.0624 52.4123H30.3383C30.9047 52.4123 31.3636 51.9521 31.3636 51.3844C31.3636 50.8168 30.9047 50.3566 30.3383 50.3566H29.0624C28.4961 50.3566 28.037 50.8167 28.037 51.3844Z" fill="url(#paint11_radial)"/>
<path d="M33.4425 51.3844C33.4425 51.9521 33.9015 52.4123 34.4679 52.4123H35.7436C36.3101 52.4123 36.769 51.9521 36.769 51.3844C36.769 50.8168 36.3101 50.3566 35.7436 50.3566H34.4679C33.9016 50.3566 33.4425 50.8167 33.4425 51.3844Z" fill="url(#paint12_radial)"/>
<path d="M38.848 51.3844C38.848 51.9521 39.307 52.4123 39.8734 52.4123H41.1493C41.7157 52.4123 42.1747 51.9521 42.1747 51.3844C42.1747 50.8168 41.7157 50.3566 41.1493 50.3566H39.8734C39.3071 50.3566 38.848 50.8167 38.848 51.3844Z" fill="url(#paint13_radial)"/>
<path d="M44.2542 51.3844C44.2542 51.9521 44.7131 52.4123 45.2795 52.4123H46.5554C47.1218 52.4123 47.5808 51.9521 47.5808 51.3844C47.5808 50.8168 47.1218 50.3566 46.5554 50.3566H45.2795C44.7133 50.3566 44.2542 50.8167 44.2542 51.3844Z" fill="url(#paint14_radial)"/>
<path d="M51.9615 52.4123C52.528 52.4123 52.9869 51.9521 52.9869 51.3844C52.9869 50.8168 52.528 50.3566 51.9615 50.3566H50.6857C50.1192 50.3566 49.6603 50.8168 49.6603 51.3844C49.6603 51.9521 50.1192 52.4123 50.6857 52.4123H51.9615Z" fill="url(#paint15_radial)"/>
<path d="M18.2222 48.0314C18.2222 47.4638 17.7632 47.0036 17.1968 47.0036H15.9209C15.3545 47.0036 14.8955 47.4638 14.8955 48.0314C14.8955 48.5991 15.3545 49.0593 15.9209 49.0593H17.1968C17.7632 49.0593 18.2222 48.5991 18.2222 48.0314Z" fill="url(#paint16_radial)"/>
<path d="M22.6023 49.0593C23.1687 49.0593 23.6277 48.5991 23.6277 48.0314C23.6277 47.4638 23.1687 47.0036 22.6023 47.0036H21.3264C20.76 47.0036 20.301 47.4638 20.301 48.0314C20.301 48.5991 20.76 49.0593 21.3264 49.0593H22.6023Z" fill="url(#paint17_radial)"/>
<path d="M26.7325 49.0593H28.0084C28.5748 49.0593 29.0338 48.5991 29.0338 48.0314C29.0338 47.4638 28.5748 47.0036 28.0084 47.0036H26.7325C26.1661 47.0036 25.7071 47.4638 25.7071 48.0314C25.7071 48.5991 26.1662 49.0593 26.7325 49.0593Z" fill="url(#paint18_radial)"/>
<path d="M32.1381 49.0593H33.4139C33.9803 49.0593 34.4393 48.5991 34.4393 48.0314C34.4393 47.4638 33.9803 47.0036 33.4139 47.0036H32.1381C31.5716 47.0036 31.1127 47.4638 31.1127 48.0314C31.1127 48.5991 31.5718 49.0593 32.1381 49.0593Z" fill="url(#paint19_radial)"/>
<path d="M37.5441 49.0593H38.8198C39.3862 49.0593 39.8452 48.5991 39.8452 48.0314C39.8452 47.4638 39.3862 47.0036 38.8198 47.0036H37.5441C36.9777 47.0036 36.5187 47.4638 36.5187 48.0314C36.5187 48.5991 36.9778 49.0593 37.5441 49.0593Z" fill="url(#paint20_radial)"/>
<path d="M42.9496 49.0593H44.2253C44.7917 49.0593 45.2507 48.5991 45.2507 48.0314C45.2507 47.4638 44.7917 47.0036 44.2253 47.0036H42.9496C42.3832 47.0036 41.9242 47.4638 41.9242 48.0314C41.9242 48.5991 42.3833 49.0593 42.9496 49.0593Z" fill="url(#paint21_radial)"/>
<path d="M50.657 48.0314C50.657 47.4638 50.198 47.0036 49.6316 47.0036H48.3557C47.7893 47.0036 47.3303 47.4638 47.3303 48.0314C47.3303 48.5991 47.7893 49.0593 48.3557 49.0593H49.6316C50.198 49.0593 50.657 48.5991 50.657 48.0314Z" fill="url(#paint22_radial)"/>
<path d="M53.7612 49.0593H55.0371C55.6035 49.0593 56.0625 48.5991 56.0625 48.0314C56.0625 47.4638 55.6035 47.0036 55.0371 47.0036H53.7612C53.1948 47.0036 52.7358 47.4638 52.7358 48.0314C52.7358 48.5991 53.1949 49.0593 53.7612 49.0593Z" fill="url(#paint23_radial)"/>
<defs>
<radialGradient id="paint0_radial" cx="0" cy="0" r="1" gradientUnits="userSpaceOnUse" gradientTransform="translate(-6.13424e-06 2) rotate(43.1913) scale(100.813 163.14)">
<stop stop-color="#852AA5"/>
<stop offset="0.833333" stop-color="#CE3E81"/>
</radialGradient>
<radialGradient id="paint1_radial" cx="0" cy="0" r="1" gradientUnits="userSpaceOnUse" gradientTransform="translate(-6.13424e-06 2) rotate(43.1913) scale(100.813 163.14)">
<stop stop-color="#852AA5"/>
<stop offset="0.833333" stop-color="#CE3E81"/>
</radialGradient>
<radialGradient id="paint2_radial" cx="0" cy="0" r="1" gradientUnits="userSpaceOnUse" gradientTransform="translate(-6.13424e-06 2) rotate(43.1913) scale(100.813 163.14)">
<stop stop-color="#852AA5"/>
<stop offset="0.833333" stop-color="#CE3E81"/>
</radialGradient>
<radialGradient id="paint3_radial" cx="0" cy="0" r="1" gradientUnits="userSpaceOnUse" gradientTransform="translate(-6.13424e-06 2) rotate(43.1913) scale(100.813 163.14)">
<stop stop-color="#852AA5"/>
<stop offset="0.833333" stop-color="#CE3E81"/>
</radialGradient>
<radialGradient id="paint4_radial" cx="0" cy="0" r="1" gradientUnits="userSpaceOnUse" gradientTransform="translate(-6.13424e-06 2) rotate(43.1913) scale(100.813 163.14)">
<stop stop-color="#852AA5"/>
<stop offset="0.833333" stop-color="#CE3E81"/>
</radialGradient>
<radialGradient id="paint5_radial" cx="0" cy="0" r="1" gradientUnits="userSpaceOnUse" gradientTransform="translate(-6.13424e-06 2) rotate(43.1913) scale(100.813 163.14)">
<stop stop-color="#852AA5"/>
<stop offset="0.833333" stop-color="#CE3E81"/>
</radialGradient>
<radialGradient id="paint6_radial" cx="0" cy="0" r="1" gradientUnits="userSpaceOnUse" gradientTransform="translate(-6.13424e-06 2) rotate(43.1913) scale(100.813 163.14)">
<stop stop-color="#852AA5"/>
<stop offset="0.833333" stop-color="#CE3E81"/>
</radialGradient>
<radialGradient id="paint7_radial" cx="0" cy="0" r="1" gradientUnits="userSpaceOnUse" gradientTransform="translate(-6.13424e-06 2) rotate(43.1913) scale(100.813 163.14)">
<stop stop-color="#852AA5"/>
<stop offset="0.833333" stop-color="#CE3E81"/>
</radialGradient>
<radialGradient id="paint8_radial" cx="0" cy="0" r="1" gradientUnits="userSpaceOnUse" gradientTransform="translate(-6.13424e-06 2) rotate(43.1913) scale(100.813 163.14)">
<stop stop-color="#852AA5"/>
<stop offset="0.833333" stop-color="#CE3E81"/>
</radialGradient>
<radialGradient id="paint9_radial" cx="0" cy="0" r="1" gradientUnits="userSpaceOnUse" gradientTransform="translate(-6.13424e-06 2) rotate(43.1913) scale(100.813 163.14)">
<stop stop-color="#852AA5"/>
<stop offset="0.833333" stop-color="#CE3E81"/>
</radialGradient>
<radialGradient id="paint10_radial" cx="0" cy="0" r="1" gradientUnits="userSpaceOnUse" gradientTransform="translate(-6.13424e-06 2) rotate(43.1913) scale(100.813 163.14)">
<stop stop-color="#852AA5"/>
<stop offset="0.833333" stop-color="#CE3E81"/>
</radialGradient>
<radialGradient id="paint11_radial" cx="0" cy="0" r="1" gradientUnits="userSpaceOnUse" gradientTransform="translate(-6.13424e-06 2) rotate(43.1913) scale(100.813 163.14)">
<stop stop-color="#852AA5"/>
<stop offset="0.833333" stop-color="#CE3E81"/>
</radialGradient>
<radialGradient id="paint12_radial" cx="0" cy="0" r="1" gradientUnits="userSpaceOnUse" gradientTransform="translate(-6.13424e-06 2) rotate(43.1913) scale(100.813 163.14)">
<stop stop-color="#852AA5"/>
<stop offset="0.833333" stop-color="#CE3E81"/>
</radialGradient>
<radialGradient id="paint13_radial" cx="0" cy="0" r="1" gradientUnits="userSpaceOnUse" gradientTransform="translate(-6.13424e-06 2) rotate(43.1913) scale(100.813 163.14)">
<stop stop-color="#852AA5"/>
<stop offset="0.833333" stop-color="#CE3E81"/>
</radialGradient>
<radialGradient id="paint14_radial" cx="0" cy="0" r="1" gradientUnits="userSpaceOnUse" gradientTransform="translate(-6.13424e-06 2) rotate(43.1913) scale(100.813 163.14)">
<stop stop-color="#852AA5"/>
<stop offset="0.833333" stop-color="#CE3E81"/>
</radialGradient>
<radialGradient id="paint15_radial" cx="0" cy="0" r="1" gradientUnits="userSpaceOnUse" gradientTransform="translate(-6.13424e-06 2) rotate(43.1913) scale(100.813 163.14)">
<stop stop-color="#852AA5"/>
<stop offset="0.833333" stop-color="#CE3E81"/>
</radialGradient>
<radialGradient id="paint16_radial" cx="0" cy="0" r="1" gradientUnits="userSpaceOnUse" gradientTransform="translate(-6.13424e-06 2) rotate(43.1913) scale(100.813 163.14)">
<stop stop-color="#852AA5"/>
<stop offset="0.833333" stop-color="#CE3E81"/>
</radialGradient>
<radialGradient id="paint17_radial" cx="0" cy="0" r="1" gradientUnits="userSpaceOnUse" gradientTransform="translate(-6.13424e-06 2) rotate(43.1913) scale(100.813 163.14)">
<stop stop-color="#852AA5"/>
<stop offset="0.833333" stop-color="#CE3E81"/>
</radialGradient>
<radialGradient id="paint18_radial" cx="0" cy="0" r="1" gradientUnits="userSpaceOnUse" gradientTransform="translate(-6.13424e-06 2) rotate(43.1913) scale(100.813 163.14)">
<stop stop-color="#852AA5"/>
<stop offset="0.833333" stop-color="#CE3E81"/>
</radialGradient>
<radialGradient id="paint19_radial" cx="0" cy="0" r="1" gradientUnits="userSpaceOnUse" gradientTransform="translate(-6.13424e-06 2) rotate(43.1913) scale(100.813 163.14)">
<stop stop-color="#852AA5"/>
<stop offset="0.833333" stop-color="#CE3E81"/>
</radialGradient>
<radialGradient id="paint20_radial" cx="0" cy="0" r="1" gradientUnits="userSpaceOnUse" gradientTransform="translate(-6.13424e-06 2) rotate(43.1913) scale(100.813 163.14)">
<stop stop-color="#852AA5"/>
<stop offset="0.833333" stop-color="#CE3E81"/>
</radialGradient>
<radialGradient id="paint21_radial" cx="0" cy="0" r="1" gradientUnits="userSpaceOnUse" gradientTransform="translate(-6.13424e-06 2) rotate(43.1913) scale(100.813 163.14)">
<stop stop-color="#852AA5"/>
<stop offset="0.833333" stop-color="#CE3E81"/>
</radialGradient>
<radialGradient id="paint22_radial" cx="0" cy="0" r="1" gradientUnits="userSpaceOnUse" gradientTransform="translate(-6.13424e-06 2) rotate(43.1913) scale(100.813 163.14)">
<stop stop-color="#852AA5"/>
<stop offset="0.833333" stop-color="#CE3E81"/>
</radialGradient>
<radialGradient id="paint23_radial" cx="0" cy="0" r="1" gradientUnits="userSpaceOnUse" gradientTransform="translate(-6.13424e-06 2) rotate(43.1913) scale(100.813 163.14)">
<stop stop-color="#852AA5"/>
<stop offset="0.833333" stop-color="#CE3E81"/>
</radialGradient>
</defs>
</svg>
