<svg width="64" height="64" viewBox="0 0 64 64" fill="none" xmlns="http://www.w3.org/2000/svg">
<path d="M4.12914 28.9031H6.19366V30.9676H4.12914V28.9031Z" fill="url(#paint0_radial)"/>
<path d="M8.25781 28.9031H17.5481V30.9676H8.25781V28.9031Z" fill="url(#paint1_radial)"/>
<path d="M61.279 22.4083C60.6121 21.9634 59.8751 21.6578 59.0885 21.5009L55.7419 20.831V19.0472C56.7608 18.1326 57.473 16.8898 57.7125 15.4839H58.8387C60.5461 15.4839 61.9355 14.0945 61.9355 12.3871C61.9355 11.6501 61.6661 10.9822 61.2346 10.4495C61.6908 9.52258 61.9355 8.50787 61.9355 7.46426V7.22581C61.9355 5.09832 60.319 3.34245 58.2503 3.12052C56.161 1.152 53.4565 0.0588387 50.5806 0.00929026V0H0V35.0968H44.3871V42.1285C42.5394 43.201 41.2903 45.1974 41.2903 47.4839C41.2903 49.6702 41.8075 51.8586 42.784 53.8116L42.9316 54.1068L40.6906 54.8542C39.6655 55.1959 38.8088 55.839 38.1935 56.6617C37.5783 55.839 36.7215 55.1959 35.6965 54.8542L33.4555 54.1068L33.6031 53.8116C34.5796 51.8586 35.0968 49.6702 35.0968 47.4839C35.0968 44.0681 32.319 41.2903 28.9032 41.2903C25.4875 41.2903 22.7097 44.0681 22.7097 47.4839C22.7097 49.6702 23.2268 51.8586 24.2034 53.8116L24.351 54.1068L22.1099 54.8542C21.1695 55.168 20.3778 55.7419 19.777 56.4676C19.2888 55.7357 18.6178 55.1226 17.792 54.7097L16.5161 54.0717V47.4839C16.5161 44.0681 13.7383 41.2903 10.3226 41.2903C6.90684 41.2903 4.12903 44.0681 4.12903 47.4839V54.0717L2.85316 54.7097C1.09316 55.5902 0 57.3585 0 59.3259V64H57.8064V59.7502C57.8064 58.1554 57.0694 56.7019 55.8792 55.7419H58.8387V42.9925C59.3094 43.2175 59.8307 43.3548 60.3871 43.3548C62.3794 43.3548 64 41.7342 64 39.7419V27.4911C64 25.4441 62.9832 23.5448 61.279 22.4083ZM58.6839 23.5252C59.2041 23.6294 59.6934 23.8317 60.1342 24.1259C61.2625 24.8785 61.9355 26.1357 61.9355 27.4911V35.0968H58.8387V28.2983C58.8387 27.6325 59.0978 27.007 59.5685 26.5363L58.1089 25.0756C57.248 25.9365 56.7742 27.0803 56.7742 28.2983V37.1613H46.4516V28.2983C46.4516 27.0803 45.9778 25.9365 45.1169 25.0756L43.6573 26.5363C43.8359 26.7148 43.9742 26.9213 44.0888 27.1391L42.0119 27.6583C39.7471 28.225 37.2676 27.6108 35.5283 26.0449L32.1414 22.9966L34.8346 20.3025L40.0175 24.9094L43.3817 23.7884C43.5406 23.7357 43.7027 23.6924 43.8679 23.6594L47.8245 22.8676L47.9164 23.1412C48.448 24.736 49.9334 25.8064 51.6129 25.8064C53.2924 25.8064 54.7778 24.736 55.3105 23.1412L55.4013 22.8676L58.6839 23.5252ZM28.4748 19.6975C28.0908 19.3517 27.871 18.8573 27.871 18.3412C27.871 17.3347 28.6895 16.5161 29.696 16.5161H29.8828C30.3308 16.5161 30.7603 16.6792 31.0947 16.9775L33.2903 18.9285L30.6054 21.6134L28.4748 19.6975ZM53.6774 21.5092L53.3523 22.4888C53.1014 23.2382 52.4036 23.7419 51.6129 23.7419C50.8222 23.7419 50.1244 23.2382 49.8746 22.4898L49.5484 21.5092V20.2766C50.1956 20.5068 50.8883 20.6379 51.6129 20.6379C52.3375 20.6379 53.0302 20.5058 53.6774 20.2766V21.5092ZM55.7419 14.4444C55.7419 16.7215 53.8901 18.5734 51.6129 18.5734C49.3357 18.5734 47.4839 16.7215 47.4839 14.4444V11.3032C48.9972 11.1453 50.4196 10.5683 51.6129 9.6289C52.8062 10.5683 54.2286 11.1443 55.7419 11.3032V14.4444ZM58.8387 13.4194H57.8064V11.3548H58.8387C59.4085 11.3548 59.871 11.8183 59.871 12.3871C59.871 12.9559 59.4085 13.4194 58.8387 13.4194ZM57.3832 5.16129H57.8064C58.945 5.16129 59.871 6.08723 59.871 7.22581V7.46426C59.871 8.12077 59.7285 8.76077 59.4674 9.35535C59.264 9.31303 59.0544 9.29032 58.8387 9.29032H57.8064V9.2831H56.5966C54.9894 9.2831 53.4782 8.65755 52.3427 7.52103L51.6129 6.79019L50.8831 7.52103C49.7466 8.65755 48.2364 9.2831 46.6292 9.2831H45.4194V9.29032H44.3871C44.1714 9.29032 43.9618 9.31303 43.7584 9.35535C43.4973 8.76077 43.3548 8.12077 43.3548 7.46426V7.25265C43.3548 5.68671 44.1899 4.21368 45.5319 3.40748C46.9966 2.52903 48.672 2.06452 50.3794 2.06452C52.896 2.06452 55.2619 3.04413 57.0818 4.864L57.3832 5.16129ZM44.3871 13.4194C43.8173 13.4194 43.3548 12.9559 43.3548 12.3871C43.3548 11.8183 43.8173 11.3548 44.3871 11.3548H45.4194V13.4194H44.3871ZM2.06452 33.0323V2.06452H43.8534C42.2596 3.29394 41.2903 5.21703 41.2903 7.25265V7.46426C41.2903 8.50787 41.535 9.52258 41.9912 10.4495C41.5597 10.9812 41.2903 11.6501 41.2903 12.3871C41.2903 14.0945 42.6797 15.4839 44.3871 15.4839H45.5133C45.7528 16.8898 46.465 18.1326 47.4839 19.0472V20.831L43.4622 21.6351C43.2145 21.6846 42.9677 21.7497 42.7283 21.8292L40.4975 22.5734L32.4655 15.4343C31.7543 14.8005 30.8366 14.4516 29.8818 14.4516H29.695C27.551 14.4516 25.8064 16.1961 25.8064 18.3412C25.8064 19.4415 26.2751 20.4955 27.0937 21.2315L34.1471 27.5788C35.8359 29.0983 38.016 29.9355 40.287 29.9355C41.0374 29.9355 41.7858 29.8436 42.5125 29.6609L44.3871 29.1933V33.0323H2.06452ZM47.4839 43.3548C49.761 43.3548 51.6129 45.2067 51.6129 47.4839C51.6129 49.3512 51.1711 51.2196 50.337 52.8888L49.9427 53.6774H45.025L44.6307 52.8888C43.7966 51.2196 43.3548 49.3512 43.3548 47.4839C43.3548 45.2067 45.2067 43.3548 47.4839 43.3548ZM28.9032 43.3548C31.1804 43.3548 33.0323 45.2067 33.0323 47.4839C33.0323 49.3512 32.5905 51.2196 31.7564 52.8888L31.3621 53.6774H26.4444L26.0501 52.8888C25.216 51.2196 24.7742 49.3512 24.7742 47.4839C24.7742 45.2067 26.6261 43.3548 28.9032 43.3548ZM6.19355 47.4839C6.19355 45.2067 8.04542 43.3548 10.3226 43.3548C12.5997 43.3548 14.4516 45.2067 14.4516 47.4839V57.8064H6.19355V47.4839ZM18.5806 61.9355H2.06452V59.3259C2.06452 58.145 2.72103 57.0839 3.776 56.5564L4.12903 56.3799V59.871H16.5161V56.3799L16.8692 56.5564C17.9241 57.0839 18.5806 58.1461 18.5806 59.3259V61.9355ZM37.1613 61.9355H20.6452V59.7502C20.6452 58.4155 21.4957 57.2346 22.7634 56.8124L25.9747 55.7419H31.8328L35.0441 56.8124C36.3107 57.2346 37.1613 58.4155 37.1613 59.7502V61.9355ZM55.7419 61.9355H39.2258V59.7502C39.2258 58.4155 40.0764 57.2346 41.344 56.8124L44.5554 55.7419H50.4134L53.6248 56.8124C54.8914 57.2346 55.7419 58.4155 55.7419 59.7502V61.9355ZM56.7742 53.6774H52.2415C53.1757 51.7574 53.6774 49.6206 53.6774 47.4839C53.6774 44.0681 50.8996 41.2903 47.4839 41.2903C47.1319 41.2903 46.7881 41.3265 46.4516 41.3832V39.2258H56.7742V53.6774ZM60.3871 41.2903C59.5334 41.2903 58.8387 40.5956 58.8387 39.7419V37.1613H61.9355V39.7419C61.9355 40.5956 61.2408 41.2903 60.3871 41.2903Z" fill="url(#paint2_radial)"/>
<path d="M20.6453 10.3228H18.5808V14.4518H16.5162V6.19375H14.4517V14.4518H12.3872V8.25827H10.3227V14.4518H8.25817V10.3228H6.19366V14.4518H4.12914V16.5163H22.7098V14.4518H20.6453V10.3228Z" fill="url(#paint3_radial)"/>
<path d="M4.12914 18.5802H6.19366V20.6447H4.12914V18.5802Z" fill="url(#paint4_radial)"/>
<path d="M8.25781 18.5802H18.5804V20.6447H8.25781V18.5802Z" fill="url(#paint5_radial)"/>
<path d="M20.6453 18.5802H22.7098V20.6447H20.6453V18.5802Z" fill="url(#paint6_radial)"/>
<defs>
<radialGradient id="paint0_radial" cx="0" cy="0" r="1" gradientUnits="userSpaceOnUse" gradientTransform="translate(7 5) rotate(48.6044) scale(89.9806)">
<stop stop-color="#852AA5"/>
<stop offset="1" stop-color="#CE3E81"/>
</radialGradient>
<radialGradient id="paint1_radial" cx="0" cy="0" r="1" gradientUnits="userSpaceOnUse" gradientTransform="translate(7 5) rotate(48.6044) scale(89.9806)">
<stop stop-color="#852AA5"/>
<stop offset="1" stop-color="#CE3E81"/>
</radialGradient>
<radialGradient id="paint2_radial" cx="0" cy="0" r="1" gradientUnits="userSpaceOnUse" gradientTransform="translate(7 5) rotate(48.6044) scale(89.9806)">
<stop stop-color="#852AA5"/>
<stop offset="1" stop-color="#CE3E81"/>
</radialGradient>
<radialGradient id="paint3_radial" cx="0" cy="0" r="1" gradientUnits="userSpaceOnUse" gradientTransform="translate(7 5) rotate(48.6044) scale(89.9806)">
<stop stop-color="#852AA5"/>
<stop offset="1" stop-color="#CE3E81"/>
</radialGradient>
<radialGradient id="paint4_radial" cx="0" cy="0" r="1" gradientUnits="userSpaceOnUse" gradientTransform="translate(7 5) rotate(48.6044) scale(89.9806)">
<stop stop-color="#852AA5"/>
<stop offset="1" stop-color="#CE3E81"/>
</radialGradient>
<radialGradient id="paint5_radial" cx="0" cy="0" r="1" gradientUnits="userSpaceOnUse" gradientTransform="translate(7 5) rotate(48.6044) scale(89.9806)">
<stop stop-color="#852AA5"/>
<stop offset="1" stop-color="#CE3E81"/>
</radialGradient>
<radialGradient id="paint6_radial" cx="0" cy="0" r="1" gradientUnits="userSpaceOnUse" gradientTransform="translate(7 5) rotate(48.6044) scale(89.9806)">
<stop stop-color="#852AA5"/>
<stop offset="1" stop-color="#CE3E81"/>
</radialGradient>
</defs>
</svg>
