<svg width="85" height="72" viewBox="0 0 85 72" fill="none" xmlns="http://www.w3.org/2000/svg">
<path d="M64.6799 35.2562L45.5826 45.4188C44.7129 45.8812 44.0077 45.5211 44.0077 44.6126V14.729C44.0077 13.8205 44.7129 12.7088 45.5826 12.2463L64.6799 2.08369C65.5497 1.62125 66.2548 1.98138 66.2548 2.88988V32.7735C66.2562 33.682 65.5497 34.7937 64.6799 35.2562Z" fill="#F05A2A"/>
<path d="M52.118 50.5806L45.6539 47.3176C44.7444 46.8593 44.0077 45.8266 44.0077 45.0123V14.6635C44.0077 13.845 44.7444 13.5613 45.6539 14.0196L52.118 17.2826C53.0276 17.7409 53.7642 18.7736 53.7642 19.5879V49.9408C53.7642 50.7552 53.0276 51.043 52.118 50.5806Z" fill="#F79420"/>
<path d="M20.3201 35.2561L39.4174 45.4188C40.2871 45.8812 40.9923 45.5211 40.9923 44.6126V14.729C40.9923 13.8205 40.2871 12.7087 39.4174 12.2463L20.3201 2.08368C19.4503 1.61988 18.7452 1.98137 18.7452 2.88987V32.7735C18.7452 33.682 19.4503 34.7937 20.3201 35.2561Z" fill="#2EBAC6"/>
<path d="M32.8819 50.5806L39.346 47.3176C40.2555 46.8593 40.9922 45.8266 40.9922 45.0123V14.6635C40.9922 13.845 40.2555 13.5613 39.346 14.0196L32.8819 17.2826C31.9723 17.7409 31.2357 18.7736 31.2357 19.5879V49.9408C31.2357 50.7552 31.9737 51.043 32.8819 50.5806Z" fill="#5EC7D7"/>
<path d="M0.657453 58.3871H1.38945L3.42945 66.2951L5.76945 58.3871H6.51345L8.84145 66.2951L10.8935 58.3871H11.6135L9.29745 67.1951H8.50545L6.14145 59.3111L3.76545 67.1951H2.97345L0.657453 58.3871ZM16.0588 67.2671C15.2428 67.2671 14.6028 67.1631 14.1388 66.9551C13.6748 66.7391 13.3228 66.3151 13.0828 65.6831C12.8428 65.0431 12.7228 64.0951 12.7228 62.8391C12.7228 61.5831 12.8428 60.6311 13.0828 59.9831C13.3308 59.3271 13.6908 58.8871 14.1628 58.6631C14.6348 58.4311 15.2668 58.3151 16.0588 58.3151C16.8748 58.3151 17.5148 58.4311 17.9788 58.6631C18.4508 58.8871 18.8028 59.3231 19.0348 59.9711C19.2748 60.6191 19.3948 61.5751 19.3948 62.8391C19.3948 64.0951 19.2748 65.0431 19.0348 65.6831C18.7948 66.3151 18.4428 66.7391 17.9788 66.9551C17.5148 67.1631 16.8748 67.2671 16.0588 67.2671ZM16.0588 66.6431C16.7388 66.6431 17.2588 66.5511 17.6188 66.3671C17.9868 66.1831 18.2588 65.8231 18.4348 65.2871C18.6108 64.7431 18.6988 63.9271 18.6988 62.8391C18.6988 61.7031 18.6108 60.8591 18.4348 60.3071C18.2588 59.7551 17.9868 59.3911 17.6188 59.2151C17.2588 59.0311 16.7388 58.9391 16.0588 58.9391C15.4108 58.9391 14.9028 59.0311 14.5348 59.2151C14.1748 59.3911 13.8988 59.7591 13.7068 60.3191C13.5148 60.8791 13.4188 61.7191 13.4188 62.8391C13.4188 63.9351 13.4988 64.7511 13.6588 65.2871C13.8268 65.8231 14.0908 66.1831 14.4508 66.3671C14.8188 66.5511 15.3548 66.6431 16.0588 66.6431ZM21.3105 58.3871H21.8985L26.7705 65.9831V58.3871H27.4665V67.1951H26.8905L22.0065 59.5991V67.1951H21.3105V58.3871ZM29.2279 58.3871H32.6359C33.6439 58.3871 34.3679 58.7511 34.8079 59.4791C35.2559 60.1991 35.4799 61.3031 35.4799 62.7911C35.4799 64.1671 35.2359 65.2471 34.7479 66.0311C34.2679 66.8071 33.5639 67.1951 32.6359 67.1951H29.2279V58.3871ZM32.5879 66.5711C33.3239 66.5711 33.8719 66.2351 34.2319 65.5631C34.5999 64.8911 34.7839 63.9671 34.7839 62.7911C34.7839 61.8791 34.7079 61.1471 34.5559 60.5951C34.4119 60.0431 34.1799 59.6431 33.8599 59.3951C33.5399 59.1391 33.1159 59.0111 32.5879 59.0111H29.9239V66.5711H32.5879ZM39.008 67.2431C38.488 67.2431 38.06 67.1351 37.724 66.9191C37.388 66.7031 37.22 66.2631 37.22 65.5991V60.0791C37.22 59.4871 37.376 59.0591 37.688 58.7951C38 58.5231 38.384 58.3871 38.84 58.3871C39.264 58.3871 40.204 58.4071 41.66 58.4471L42.512 58.4831V59.0231H39.02C38.668 59.0231 38.396 59.1191 38.204 59.3111C38.012 59.4951 37.916 59.7791 37.916 60.1631V62.5031L42.008 62.5631V63.0791L37.916 63.1391V65.4671C37.916 65.9151 38.024 66.2151 38.24 66.3671C38.456 66.5191 38.744 66.5951 39.104 66.5951H42.512V67.1351C41.456 67.1831 40.288 67.2191 39.008 67.2431ZM44.2279 58.3871H47.6479C48.3039 58.3871 48.8359 58.5631 49.2439 58.9151C49.6599 59.2591 49.8679 59.9231 49.8679 60.9071C49.8679 61.7951 49.6959 62.4151 49.3519 62.7671C49.0159 63.1191 48.5999 63.3311 48.1039 63.4031L49.9519 67.1951H49.2559L47.4439 63.4751C46.6759 63.4751 45.8359 63.4591 44.9239 63.4271V67.1951H44.2279V58.3871ZM47.5639 62.8991C48.0679 62.8991 48.4599 62.7631 48.7399 62.4911C49.0279 62.2111 49.1719 61.6831 49.1719 60.9071C49.1719 60.1711 49.0279 59.6711 48.7399 59.4071C48.4519 59.1431 48.0599 59.0111 47.5639 59.0111H44.9239V62.8991H47.5639ZM53.9066 67.2671C53.5546 67.2671 53.0906 67.2471 52.5146 67.2071C51.9466 67.1671 51.5306 67.1231 51.2666 67.0751V66.5471C51.8426 66.6111 52.7146 66.6431 53.8826 66.6431C54.5306 66.6431 55.0346 66.5391 55.3946 66.3311C55.7546 66.1231 55.9346 65.7351 55.9346 65.1671V64.4951C55.9346 64.0391 55.8186 63.6951 55.5866 63.4631C55.3546 63.2231 54.9906 63.1031 54.4946 63.1031H53.4746C52.7466 63.1031 52.1946 62.9471 51.8186 62.6351C51.4426 62.3151 51.2546 61.7911 51.2546 61.0631V60.5471C51.2546 59.7551 51.4586 59.1871 51.8666 58.8431C52.2826 58.4911 52.8986 58.3151 53.7146 58.3151C54.0426 58.3151 54.4626 58.3391 54.9746 58.3871C55.4946 58.4351 55.9066 58.4831 56.2106 58.5311V59.0591C55.0506 58.9791 54.2386 58.9391 53.7746 58.9391C53.1506 58.9391 52.6866 59.0591 52.3826 59.2991C52.0786 59.5311 51.9266 59.9551 51.9266 60.5711V61.0391C51.9266 61.5511 52.0546 61.9111 52.3106 62.1191C52.5746 62.3271 52.9666 62.4311 53.4866 62.4311H54.5546C55.2346 62.4311 55.7466 62.6111 56.0906 62.9711C56.4346 63.3311 56.6066 63.8151 56.6066 64.4231V65.1551C56.6066 65.9391 56.3626 66.4871 55.8746 66.7991C55.3866 67.1111 54.7306 67.2671 53.9066 67.2671ZM60.029 67.1951C59.509 67.1951 59.097 67.0711 58.793 66.8231C58.497 66.5671 58.349 66.1351 58.349 65.5271V58.3871H59.045V65.4431C59.045 65.8671 59.145 66.1591 59.345 66.3191C59.553 66.4711 59.821 66.5471 60.149 66.5471H63.413V67.1951H60.029ZM67.328 58.3871H68.228L71.336 67.1951H70.604L69.632 64.4591H65.912L64.952 67.1951H64.22L67.328 58.3871ZM69.428 63.8351L67.772 59.0111L66.092 63.8351H69.428ZM74.2171 59.0111H71.3971V58.3871H77.7331V59.0111H74.9131V67.1951H74.2171V59.0111ZM80.5627 67.2431C80.0427 67.2431 79.6147 67.1351 79.2787 66.9191C78.9427 66.7031 78.7747 66.2631 78.7747 65.5991V60.0791C78.7747 59.4871 78.9307 59.0591 79.2427 58.7951C79.5547 58.5231 79.9387 58.3871 80.3947 58.3871C80.8187 58.3871 81.7587 58.4071 83.2147 58.4471L84.0667 58.4831V59.0231H80.5747C80.2227 59.0231 79.9507 59.1191 79.7587 59.3111C79.5667 59.4951 79.4707 59.7791 79.4707 60.1631V62.5031L83.5627 62.5631V63.0791L79.4707 63.1391V65.4671C79.4707 65.9151 79.5787 66.2151 79.7947 66.3671C80.0107 66.5191 80.2987 66.5951 80.6587 66.5951H84.0667V67.1351C83.0107 67.1831 81.8427 67.2191 80.5627 67.2431Z" fill="white"/>
</svg>
