<svg width="64" height="64" viewBox="0 0 64 64" fill="none" xmlns="http://www.w3.org/2000/svg">
<path d="M28.6013 14.7542L27.1417 16.2138L29.2145 18.2866C29.0204 18.6902 28.9038 19.1362 28.9038 19.6131C28.9038 21.3204 30.2932 22.7098 32.0006 22.7098C33.7079 22.7098 35.0973 21.3204 35.0973 19.6131C35.0973 19.1362 34.9807 18.6902 34.7866 18.2866L35.8271 17.2461L34.3675 15.7865L33.327 16.827C32.9234 16.6329 32.4775 16.5163 32.0006 16.5163C31.5237 16.5163 31.0777 16.6329 30.6741 16.827L28.6013 14.7542ZM32.0006 18.5808C32.5693 18.5808 33.0328 19.0433 33.0328 19.6131C33.0328 20.1829 32.5693 20.6453 32.0006 20.6453C31.4318 20.6453 30.9683 20.1829 30.9683 19.6131C30.9683 19.0433 31.4318 18.5808 32.0006 18.5808Z" fill="url(#paint0_radial)"/>
<path d="M39.2255 30.9676H24.7739C23.6353 30.9676 22.7094 31.8935 22.7094 33.0321V39.2257C22.7094 40.3642 23.6353 41.2902 24.7739 41.2902H39.2255C40.3641 41.2902 41.29 40.3642 41.29 39.2257V33.0321C41.29 31.8935 40.3641 30.9676 39.2255 30.9676ZM39.2255 35.0966H37.161V33.0321H39.2255V35.0966ZM30.9674 37.1611V39.2257H28.9029V37.1611H30.9674ZM28.9029 35.0966V33.0321H30.9674V35.0966H28.9029ZM33.032 37.1611H35.0965V39.2257H33.032V37.1611ZM33.032 35.0966V33.0321H35.0965V35.0966H33.032ZM26.8384 33.0321V35.0966H24.7739V33.0321H26.8384ZM24.7739 37.1611H26.8384V39.2257H24.7739V37.1611ZM37.161 39.2257V37.1611H39.2265V39.2257H37.161Z" fill="url(#paint1_radial)"/>
<path d="M61.9355 33.0323C63.0741 33.0323 64 32.1063 64 30.9677V28.2983C64 27.7554 63.7801 27.2227 63.3951 26.8387L57.8064 21.2501C57.4163 20.8599 56.8981 20.6452 56.3468 20.6452H45.4194V15.841C45.4194 15.3796 45.2625 14.9265 44.9775 14.5662L34.4815 1.20568C33.8787 0.439742 32.9745 0 32 0C31.0255 0 30.1213 0.439742 29.5185 1.20568L19.0235 14.5641C18.7375 14.9265 18.5806 15.3786 18.5806 15.841V20.6452H7.65316C7.10193 20.6452 6.58374 20.8599 6.19355 21.2501L0.604903 26.8387C0.219871 27.2227 0 27.7554 0 28.2983V30.9677C0 32.1063 0.925935 33.0323 2.06452 33.0323H4.12903V45.4194H2.06452C0.925935 45.4194 0 46.3453 0 47.4839V49.5484C0 50.687 0.925935 51.6129 2.06452 51.6129V64H61.9355V51.6129C63.0741 51.6129 64 50.687 64 49.5484V47.4839C64 46.3453 63.0741 45.4194 61.9355 45.4194H59.871V33.0323H61.9355ZM45.4194 30.9677V28.9032H61.9355V30.9677H45.4194ZM51.1329 26.8387L48.3799 22.7097H51.1288L54.5693 26.8387H51.1329ZM60.4759 26.8387H57.2583L53.8178 22.7097H56.3479L60.4759 26.8387ZM45.8994 22.7097L48.6524 26.8387H45.4194V22.7097H45.8994ZM45.4194 37.1613H49.5484V41.2903H45.4194V37.1613ZM55.7419 51.6129V61.9355H53.6774V51.6129H55.7419ZM51.6129 61.9355H49.5484V51.6129H51.6129V61.9355ZM47.4839 61.9355H45.4194V51.6129H47.4839V61.9355ZM24.7742 49.5484V47.4839H39.2258L39.2268 49.5484H24.7742ZM30.9677 51.6129V61.9355H26.8387V51.6129H30.9677ZM33.0323 51.6129H37.1613V61.9355H33.0323V51.6129ZM39.2258 51.6129C40.3644 51.6129 41.2903 50.687 41.2903 49.5484V47.4839C41.2903 46.3453 40.3644 45.4194 39.2258 45.4194H24.7742C23.6356 45.4194 22.7097 46.3453 22.7097 47.4839V49.5484C22.7097 50.687 23.6356 51.6129 24.7742 51.6129V61.9355H20.6452V16.5161H23.2516C22.9068 17.4865 22.7097 18.5259 22.7097 19.6129C22.7097 24.736 26.8779 28.9032 32 28.9032C37.1221 28.9032 41.2903 24.736 41.2903 19.6129C41.2903 18.5259 41.0932 17.4865 40.7484 16.5161H43.3548V61.9355H39.2258V51.6129ZM10.3226 51.6129V61.9355H8.25806V51.6129H10.3226ZM12.3871 51.6129H14.4516V61.9355H12.3871V51.6129ZM16.5161 51.6129H18.5806V61.9355H16.5161V51.6129ZM18.5806 41.2903H14.4516V37.1613H18.5806V41.2903ZM33.0323 14.4516V12.4697C36.1899 12.9249 38.688 15.423 39.1432 18.5806H37.1613V20.6452H39.1432C38.688 23.8028 36.1899 26.3009 33.0323 26.7561V24.7742H30.9677V26.7561C27.8101 26.3009 25.312 23.8028 24.8568 20.6452H26.8387V18.5806H24.8568C25.312 15.423 27.8101 12.9249 30.9677 12.4697V14.4516H33.0323ZM31.1412 2.48155C31.5582 1.95097 32.4408 1.95097 32.8578 2.48155L42.2637 14.4516H39.7203C38.0511 11.9639 35.2145 10.3226 32.001 10.3226C28.7876 10.3226 25.9499 11.9639 24.2818 14.4516H21.7383L31.1412 2.48155ZM18.5806 26.8387H15.3476L18.1006 22.7097H18.5806V26.8387ZM9.42968 26.8387L12.8702 22.7097H15.6191L12.8661 26.8387H9.42968ZM7.65316 22.7097H10.1832L6.74271 26.8387H3.52413L7.65316 22.7097ZM2.06452 28.9032H18.5806V30.9677H2.06452V28.9032ZM6.19355 37.1613H8.25806V41.2903H6.19355V37.1613ZM6.19355 43.3548H8.25806C9.39664 43.3548 10.3226 42.4289 10.3226 41.2903V37.1613C10.3226 36.0227 9.39664 35.0968 8.25806 35.0968H6.19355V33.0323H18.5806V35.0968H14.4516C13.313 35.0968 12.3871 36.0227 12.3871 37.1613V41.2903C12.3871 42.4289 13.313 43.3548 14.4516 43.3548H18.5806V45.4194H6.19355V43.3548ZM2.06452 47.4839H18.5806V49.5484H2.06452V47.4839ZM4.12903 51.6129H6.19355V61.9355H4.12903V51.6129ZM59.871 61.9355H57.8064V51.6129H59.871V61.9355ZM61.9355 49.5484H45.4194V47.4839H61.9355V49.5484ZM57.8064 41.2903H55.7419V37.1613H57.8064V41.2903ZM57.8064 35.0968H55.7419C54.6034 35.0968 53.6774 36.0227 53.6774 37.1613V41.2903C53.6774 42.4289 54.6034 43.3548 55.7419 43.3548H57.8064V45.4194H45.4194V43.3548H49.5484C50.687 43.3548 51.6129 42.4289 51.6129 41.2903V37.1613C51.6129 36.0227 50.687 35.0968 49.5484 35.0968H45.4194V33.0323H57.8064V35.0968Z" fill="url(#paint2_radial)"/>
<defs>
<radialGradient id="paint0_radial" cx="0" cy="0" r="1" gradientUnits="userSpaceOnUse" gradientTransform="translate(6.5 9) rotate(46.4564) scale(83.4656)">
<stop stop-color="#852AA5"/>
<stop offset="1" stop-color="#CE3E81"/>
</radialGradient>
<radialGradient id="paint1_radial" cx="0" cy="0" r="1" gradientUnits="userSpaceOnUse" gradientTransform="translate(6.5 9) rotate(46.4564) scale(83.4656)">
<stop stop-color="#852AA5"/>
<stop offset="1" stop-color="#CE3E81"/>
</radialGradient>
<radialGradient id="paint2_radial" cx="0" cy="0" r="1" gradientUnits="userSpaceOnUse" gradientTransform="translate(6.5 9) rotate(46.4564) scale(83.4656)">
<stop stop-color="#852AA5"/>
<stop offset="1" stop-color="#CE3E81"/>
</radialGradient>
</defs>
</svg>
