<svg width="12" height="11" viewBox="0 0 12 11" fill="none" xmlns="http://www.w3.org/2000/svg">
<g clip-path="url(#clip0)">
<path d="M11.997 11V10.9996H12V6.96531C12 4.99173 11.5365 3.47144 9.01951 3.47144C7.80951 3.47144 6.99751 4.0801 6.66601 4.65714H6.63101V3.65569H4.24451V10.9996H6.72951V7.36314C6.72951 6.40569 6.92751 5.47985 8.22101 5.47985C9.49551 5.47985 9.51451 6.57252 9.51451 7.42456V11H11.997Z" fill="white"/>
<path d="M0.198003 3.65619H2.686V11.0001H0.198003V3.65619Z" fill="white"/>
<path d="M1.441 0C0.6455 0 0 0.591708 0 1.32092C0 2.05013 0.6455 2.65421 1.441 2.65421C2.2365 2.65421 2.882 2.05013 2.882 1.32092C2.8815 0.591708 2.236 0 1.441 0V0Z" fill="white"/>
</g>
<defs>
<clipPath id="clip0">
<rect width="12" height="11" fill="white"/>
</clipPath>
</defs>
</svg>
