<svg width="153" height="40" viewBox="0 0 153 40" fill="none" xmlns="http://www.w3.org/2000/svg">
<rect width="153" height="40" fill="white" fill-opacity="0.01"/>
<path d="M33.2167 25.4149L21.8369 31.5878C21.3186 31.8687 20.8984 31.6499 20.8984 31.0981V12.9466C20.8984 12.3948 21.3186 11.7195 21.8369 11.4386L33.2167 5.26573C33.735 4.98484 34.1551 5.20359 34.1551 5.75542V23.9069C34.1559 24.4588 33.735 25.1341 33.2167 25.4149Z" fill="#F05A2A"/>
<path d="M25.7312 34.7229L21.8794 32.7409C21.3374 32.4625 20.8984 31.8353 20.8984 31.3407V12.9066C20.8984 12.4094 21.3374 12.2371 21.8794 12.5155L25.7312 14.4974C26.2732 14.7758 26.7122 15.4031 26.7122 15.8977V34.3343C26.7122 34.8289 26.2732 35.0038 25.7312 34.7229Z" fill="#F79420"/>
<path d="M6.78317 25.4148L18.163 31.5877C18.6812 31.8686 19.1014 31.6498 19.1014 31.098V12.9465C19.1014 12.3946 18.6812 11.7194 18.163 11.4385L6.78317 5.26561C6.2649 4.98389 5.84473 5.20346 5.84473 5.75529V23.9068C5.84473 24.4586 6.2649 25.1339 6.78317 25.4148Z" fill="#2EBAC6"/>
<path d="M14.2681 34.7229L18.1199 32.7409C18.6619 32.4625 19.1009 31.8353 19.1009 31.3407V12.9066C19.1009 12.4094 18.6619 12.2371 18.1199 12.5155L14.2681 14.4974C13.7261 14.7758 13.2871 15.4031 13.2871 15.8977V34.3343C13.2871 34.8289 13.7269 35.0038 14.2681 34.7229Z" fill="#5EC7D7"/>
<path d="M39 14.0965L43.1704 25.8713H44.1526L46.1815 19.7426L48.5163 25.8713H49.4985L53.3147 14.0965H52.3164L48.9832 24.4397L46.6646 18.2306L47.9527 14.0965H46.9222L43.6535 24.3753L40.0144 14.0965H39Z" fill="black"/>
<path d="M55.258 20.0643C55.258 15.0456 56.5945 14.933 58.8165 14.933C61.1513 14.933 62.3751 15.126 62.3751 20.0643C62.3751 24.3271 61.409 25.0188 58.8165 25.0188C56.1597 25.0188 55.258 24.4236 55.258 20.0643ZM54.3402 20.0643C54.3402 25.4209 55.9182 25.9357 58.8165 25.9357C61.7149 25.9357 63.2929 25.2601 63.2929 20.0643C63.2929 14.5469 61.6022 14.0161 58.8165 14.0161C56.0953 14.0161 54.3402 14.5469 54.3402 20.0643Z" fill="black"/>
<path d="M65.4796 25.8713H66.3974V15.8177L72.9671 25.8713H73.8849V14.0965H72.9671V24.1501L66.4135 14.0965H65.4796V25.8713Z" fill="black"/>
<path d="M77.2474 24.9223V15.0134H80.5966C82.6416 15.0134 83.8654 16.4611 83.8654 20.0161C83.8654 22.4611 82.9153 24.9223 80.5966 24.9223H77.2474ZM76.3296 25.8713H80.5966C83.656 25.8713 84.7832 22.7024 84.7832 20.0322C84.7832 17.6193 84.2196 14.0965 80.5966 14.0965H76.3296V25.8713Z" fill="black"/>
<path d="M86.6607 23.8928C86.6607 25.7105 87.7878 25.9678 88.8506 25.9196L93.6651 25.6783V25.0027H88.8506C88.2387 25.0027 87.5785 24.9544 87.5785 23.8928V20.5147L93.021 20.3861V19.6783L87.5785 19.5496V16.1877C87.5785 15.496 87.7878 15.0134 88.6895 15.0134H93.6651V14.3217L88.6895 14.0965C87.6268 14.0483 86.6607 14.6113 86.6607 16.1877V23.8928Z" fill="black"/>
<path d="M96.4228 19.9517V15.0295H100.336C101.221 15.0295 102.155 15.2869 102.155 17.5228C102.155 19.8231 101.253 19.9517 100.336 19.9517H96.4228ZM95.505 25.8713H96.4228V20.7239C96.455 20.7399 99.5949 20.9169 99.8847 20.933L102.397 25.8713H103.395L100.867 20.9008C101.559 20.8525 103.089 20.5791 103.089 17.5228C103.089 14.7882 101.769 14.0965 100.336 14.0965H95.505V25.8713Z" fill="black"/>
<path d="M105.036 17.9249C105.036 19.244 105.326 20.563 107.87 20.563H109.98C111.203 20.563 111.606 21.1903 111.606 22.2681V23.3619C111.606 24.9383 110.237 25.0831 109.303 25.0831C107.806 25.0831 106.035 25.0027 105.358 24.9383V25.6461C106.099 25.7748 108.514 26 109.303 26C110.897 26 112.524 25.6461 112.524 23.3619V22.2681C112.524 20.9491 112.121 19.63 109.98 19.63H107.838C106.695 19.63 105.954 19.4531 105.954 17.9249V16.8633C105.954 15.1421 106.872 14.8686 108.192 14.9169C108.192 14.9169 111.042 14.9973 112.073 15.0617V14.3539C111.397 14.2574 109.046 14 108.192 14C106.389 14 105.036 14.5308 105.036 16.8633V17.9249Z" fill="black"/>
<path d="M114.713 23.8445C114.713 25.6622 115.841 25.8713 116.903 25.8713H121.653V24.9544H116.903C116.291 24.9544 115.631 24.9062 115.631 23.8445V14.0965H114.713V23.8445Z" fill="black"/>
<path d="M125.705 21.3995L127.879 15.4316L129.972 21.3995H125.705ZM123.032 25.8713H124.143L125.367 22.3164H130.294L131.454 25.8713H132.533L128.378 14.0965H127.396L123.032 25.8713Z" fill="black"/>
<path d="M132.167 15.0134H135.774V25.8713H136.692V15.0134H140.395V14.0965H132.167V15.0134Z" fill="black"/>
<path d="M141.996 23.8928C141.996 25.7105 143.123 25.9678 144.186 25.9196L149 25.6783V25.0027H144.186C143.574 25.0027 142.913 24.9544 142.913 23.8928V20.5147L148.356 20.3861V19.6783L142.913 19.5496V16.1877C142.913 15.496 143.123 15.0134 144.024 15.0134H149V14.3217L144.024 14.0965C142.962 14.0483 141.996 14.6113 141.996 16.1877V23.8928Z" fill="black"/>
</svg>
