<svg width="29" height="29" viewBox="0 0 29 29" fill="none" xmlns="http://www.w3.org/2000/svg">
<path d="M13.2521 22.5826H15.9863V19.8484H13.2521V22.5826ZM14.6192 0.709137C7.07288 0.709137 0.948318 6.83369 0.948318 14.38C0.948318 21.9264 7.07288 28.0509 14.6192 28.0509C22.1655 28.0509 28.2901 21.9264 28.2901 14.38C28.2901 6.83369 22.1655 0.709137 14.6192 0.709137ZM14.6192 25.3167C8.59034 25.3167 3.6825 20.4089 3.6825 14.38C3.6825 8.35116 8.59034 3.44331 14.6192 3.44331C20.6481 3.44331 25.5559 8.35116 25.5559 14.38C25.5559 20.4089 20.6481 25.3167 14.6192 25.3167ZM14.6192 6.17749C11.5979 6.17749 9.15085 8.62458 9.15085 11.6458H11.885C11.885 10.142 13.1154 8.91167 14.6192 8.91167C16.123 8.91167 17.3534 10.142 17.3534 11.6458C17.3534 14.38 13.2521 14.0383 13.2521 18.4813H15.9863C15.9863 15.4053 20.0876 15.0636 20.0876 11.6458C20.0876 8.62458 17.6405 6.17749 14.6192 6.17749Z" fill="url(#paint0_radial)"/>
<defs>
<radialGradient id="paint0_radial" cx="0" cy="0" r="1" gradientUnits="userSpaceOnUse" gradientTransform="translate(3.26144 4.91392) rotate(49.514) scale(34.0136)">
<stop stop-color="#09CABF"/>
<stop offset="1" stop-color="#00504B"/>
</radialGradient>
</defs>
</svg>
