<svg width="142" height="41" viewBox="0 0 142 41" fill="none" xmlns="http://www.w3.org/2000/svg">
<g opacity="0.3" clip-path="url(#clip0)">
<path d="M35.2294 40.9198C35.2294 40.9198 34.5047 39.2644 33.6126 37.2665C32.7764 35.2686 31.9958 33.499 31.8843 33.3848C31.6613 33.0423 31.3826 32.814 30.9365 32.6428C30.7135 32.5857 30.5463 32.5286 30.5463 32.4144C30.5463 32.3003 30.7135 32.3003 32.7206 32.3003C34.8392 32.3003 34.9507 32.3003 34.9507 32.4144C34.9507 32.5286 34.8949 32.5286 34.6162 32.5857C34.1702 32.6998 33.8356 32.8711 33.7241 33.0423C33.6684 33.0994 33.6684 33.2707 33.6684 33.4419C33.7241 33.7844 34.1702 34.9832 34.7834 36.3531C35.5082 37.9515 35.7312 38.4652 35.8427 38.4081C36.01 38.3511 37.571 34.5265 37.7383 33.7273C37.794 33.3848 37.8498 33.2707 37.794 33.1565C37.6825 32.9282 37.2365 32.6998 36.7905 32.5857C36.5117 32.5286 36.456 32.4715 36.456 32.4144C36.456 32.3003 36.5117 32.3003 38.2958 32.3003C40.0799 32.3003 40.1356 32.3003 40.1356 32.4144C40.1356 32.5286 40.0241 32.5857 39.8011 32.6428C39.5223 32.6998 39.3551 32.814 39.1321 33.0994C38.6861 33.5561 37.8498 35.2115 35.9542 39.664C35.3967 40.8627 35.2852 41.0339 35.2294 40.9198ZM5.56945 40.6914C4.2314 40.4631 3.61813 39.8352 3.33937 38.5223C3.28362 38.294 3.17212 37.3806 3.11637 36.4673C2.83761 33.8415 2.7261 33.3278 2.28009 32.9282C2.11283 32.7569 1.94558 32.6998 1.77832 32.6998C1.16505 32.6428 1.16505 32.5857 1.16505 32.4715C1.16505 32.3573 1.16505 32.3003 2.00133 32.3003C2.44734 32.3003 3.17212 32.2432 3.61813 32.2432H4.39866L4.45441 32.5286C4.45441 32.6998 4.51016 33.6132 4.56592 34.5836C4.67742 36.5815 4.84467 38.2369 4.90043 38.6365C5.01193 38.979 5.34644 39.4356 5.68095 39.664C6.12697 39.9494 6.57298 40.0635 7.242 40.0635C8.18979 40.0635 8.91456 39.721 9.24907 39.0931C9.52783 38.5223 9.86234 36.5815 9.91809 35.0973C9.97385 33.9557 9.91809 33.6132 9.63933 33.2136C9.47208 32.9282 8.97031 32.6428 8.69155 32.6428C8.46855 32.6428 8.35704 32.5857 8.35704 32.4715C8.35704 32.3573 8.41279 32.3573 10.4756 32.3573C12.4827 32.3573 12.5942 32.3573 12.5942 32.4715C12.5942 32.5857 12.4269 32.6428 12.1482 32.6428C11.9252 32.6428 11.4791 32.8711 11.2561 33.0423C10.8659 33.4419 10.5871 34.2411 10.4756 35.4969C10.3084 37.3236 10.1969 38.0086 10.0854 38.4652C9.75084 39.721 9.13757 40.4631 8.07828 40.6914C7.52076 40.8056 6.23847 40.8056 5.56945 40.6914ZM62.5479 40.6344C62.2133 40.5773 61.5443 40.349 61.2098 40.1777L60.8753 40.0065V38.6936C60.8753 37.3806 60.8753 37.3806 60.9868 37.3806C61.0983 37.3806 61.1541 37.4948 61.2656 37.9515C61.6558 39.4927 62.4921 40.2919 63.5514 40.2348C64.4434 40.1206 65.0009 39.3215 64.7779 38.4652C64.7222 38.1798 64.6664 38.0656 64.3319 37.7802C64.0532 37.4948 63.8301 37.3236 62.9939 36.924C62.4363 36.6386 61.8788 36.2961 61.7116 36.1819C60.931 35.6111 60.6523 34.5265 61.0983 33.6132C61.4886 32.6998 62.4921 32.129 63.7744 32.129C64.3877 32.129 64.7779 32.1861 65.3912 32.4144C65.7257 32.5286 65.7257 32.5857 65.7257 32.814V33.9557C65.67 34.8119 65.67 34.869 65.5584 34.8119C65.4469 34.8119 65.3912 34.6977 65.2797 34.2982C65.0567 33.4419 64.7222 32.9282 64.2204 32.6998C63.5514 32.3573 62.8824 32.5286 62.4921 33.0994C62.2133 33.499 62.2133 33.7844 62.3248 34.2411C62.4921 34.8119 62.8266 35.0973 64.0532 35.7252C65.1682 36.2961 65.4469 36.4673 65.7815 36.8669C66.339 37.4948 66.4505 38.4652 66.0602 39.2644C65.7815 39.8352 65.0567 40.3489 64.2204 40.5202C63.8859 40.6914 62.8266 40.6914 62.5479 40.6344ZM128.279 40.5202C128.001 40.4631 127.61 40.2919 127.387 40.2348L127.053 40.0635V38.7506C127.053 37.5519 127.053 37.4377 127.164 37.4377C127.276 37.4377 127.276 37.5519 127.387 38.0086C127.778 39.664 128.781 40.5773 129.896 40.2919C130.732 40.0635 131.178 39.036 130.788 38.2369C130.565 37.7802 130.231 37.5519 129.116 36.9811C127.443 36.1819 127.053 35.6682 127.053 34.5836C127.053 33.7273 127.387 33.1565 128.056 32.6998C129.004 32.0719 130.398 32.0149 131.569 32.5286L131.847 32.6428L131.792 33.3278C131.736 34.7548 131.68 34.9261 131.569 34.9261C131.457 34.9261 131.457 34.869 131.401 34.6407C131.178 33.7844 130.844 33.1565 130.398 32.8711C130.063 32.6428 129.45 32.5857 129.116 32.7569C128.614 32.9853 128.335 33.4419 128.335 34.0128C128.335 34.7548 128.781 35.2115 130.008 35.8394C131.401 36.5244 131.847 36.8669 132.126 37.5519C132.349 38.0086 132.293 38.8648 132.07 39.3215C131.792 39.9494 131.178 40.406 130.342 40.6344C129.896 40.7485 128.948 40.6914 128.279 40.5202ZM135.917 40.5202C135.694 40.4631 135.248 40.2919 135.025 40.2348L134.579 40.0635V38.7506C134.579 37.4377 134.579 37.4377 134.691 37.4377C134.802 37.4377 134.802 37.4948 134.858 37.7231C135.137 38.8077 135.416 39.3785 135.806 39.8352C136.642 40.6344 137.924 40.4631 138.37 39.5498C138.649 38.9219 138.538 38.2369 137.98 37.7802C137.869 37.6661 137.255 37.3236 136.642 36.9811C135.025 36.1248 134.635 35.7252 134.579 34.6977C134.523 33.8415 134.858 33.1565 135.583 32.6998C136.531 32.0719 137.924 32.0149 139.151 32.5286L139.43 32.6428L139.374 33.4419C139.318 34.6977 139.318 34.869 139.151 34.869C139.095 34.869 138.984 34.6977 138.872 34.2982C138.649 33.5561 138.315 33.0423 137.924 32.814C137.646 32.6428 137.534 32.6428 137.144 32.6428C136.809 32.6428 136.642 32.6998 136.475 32.814C135.973 33.1565 135.75 33.7273 135.917 34.3553C136.085 34.869 136.475 35.2115 137.701 35.8394C139.095 36.5815 139.374 36.8098 139.708 37.4377C139.876 37.7231 139.876 37.8373 139.876 38.351C139.876 38.8648 139.876 38.979 139.708 39.3215C139.374 40.0065 138.872 40.406 138.036 40.6344C137.423 40.6914 136.531 40.6914 135.917 40.5202ZM58.478 40.5202C58.0877 40.5202 57.5859 40.406 57.4744 40.406C56.6382 40.1206 55.8576 39.3785 55.0214 38.0656C54.6311 37.4377 54.0178 36.2961 54.0178 36.239L54.3523 36.1248C55.2444 35.8394 55.5789 35.3827 55.5789 34.4694C55.5789 33.8986 55.4674 33.5561 55.0771 33.2136C54.6868 32.8711 54.0178 32.5857 53.4603 32.5857H53.1815V35.7252C53.1815 39.2073 53.2373 39.2644 53.6276 39.721C53.8506 39.9494 54.1851 40.0635 54.7426 40.1777C55.0214 40.2348 55.0771 40.2348 55.0771 40.3489C55.0771 40.4631 54.9656 40.4631 52.6798 40.4631C50.3382 40.4631 50.2824 40.4631 50.2824 40.3489C50.2824 40.2348 50.3939 40.2348 50.7285 40.1206C51.286 40.0065 51.5647 39.8352 51.732 39.4927C51.8435 39.2073 51.8435 39.2073 51.8435 36.4102V33.6132L51.6762 33.3278C51.509 32.9853 51.286 32.814 50.6727 32.6998C50.2824 32.5857 50.2267 32.5857 50.2267 32.4715C50.2267 32.3573 50.2824 32.3573 52.5683 32.3573C55.1886 32.3573 55.3559 32.3573 56.1921 32.7569C56.9169 33.0994 57.2514 33.6132 57.2514 34.3553C57.2514 35.1544 56.8612 35.7252 55.9691 36.1819L55.5789 36.3531L55.7461 36.6386C56.1921 37.5519 57.3629 39.036 58.1435 39.6069C58.478 39.8923 58.924 40.1206 59.3142 40.2348C59.4815 40.2919 59.5373 40.349 59.5373 40.4631C59.5373 40.5773 59.4815 40.6344 59.37 40.5773C59.2585 40.5773 58.8682 40.5773 58.478 40.5202ZM115.568 40.5202C115.178 40.5202 114.732 40.406 114.509 40.3489C113.505 40.0635 112.557 39.036 111.442 36.9811L110.996 36.1819L111.331 36.0677C112.223 35.7823 112.613 35.3827 112.669 34.6407C112.78 33.499 112.055 32.7569 110.606 32.5857L110.271 32.5286V34.9261C110.271 36.239 110.271 37.7231 110.327 38.2369C110.383 39.6069 110.606 39.8923 111.609 40.0635C112.055 40.1206 112.111 40.1777 112.111 40.2919C112.111 40.406 112 40.406 109.77 40.406C107.54 40.406 107.428 40.406 107.428 40.2919C107.428 40.1777 107.54 40.1777 107.818 40.0635C108.766 39.8352 108.878 39.6069 108.933 38.0086C108.989 37.3236 108.989 36.1819 108.933 35.2115C108.878 33.6132 108.878 33.499 108.71 33.2136C108.543 32.8711 108.264 32.6998 107.651 32.5857C107.317 32.5286 107.317 32.4715 107.317 32.3573V32.1861H109.658C112.223 32.2432 112.502 32.2432 113.226 32.6428C113.672 32.8711 113.951 33.1565 114.118 33.499C114.286 33.8415 114.286 34.6977 114.118 35.0402C113.951 35.3827 113.505 35.8394 113.059 36.0677C112.836 36.1819 112.669 36.2961 112.669 36.3531C112.669 36.4673 113.338 37.5519 113.784 38.0656C114.286 38.6935 115.066 39.4927 115.512 39.721C115.679 39.8352 116.014 40.0065 116.237 40.0635C116.571 40.1777 116.627 40.2348 116.627 40.3489C116.627 40.6344 116.739 40.6344 115.568 40.5202ZM13.542 40.3489C13.542 40.2348 13.5977 40.2348 13.8765 40.1777C14.4897 40.0635 14.88 39.721 14.9915 39.2644C15.1588 38.5794 15.326 36.1819 15.2145 34.6407L15.1588 33.7273L14.7685 33.3278C14.3782 32.9282 14.0995 32.7569 13.542 32.5857C13.4305 32.5286 13.319 32.4715 13.319 32.4144C13.319 32.3003 13.4305 32.3003 14.657 32.3003H15.995L16.4411 32.8711C16.9986 33.5561 17.5003 34.1269 18.7269 35.3827C19.2287 35.9536 20.0092 36.7527 20.4552 37.2094L21.2915 38.0656C21.3472 38.0656 21.3472 35.0402 21.2915 34.2982C21.2357 33.6132 21.1242 33.2707 20.9012 33.0423C20.6782 32.814 20.1764 32.6428 19.6747 32.5857C19.3402 32.5286 19.2287 32.5286 19.2287 32.4144C19.2287 32.3003 19.3402 32.3003 21.3472 32.3003C23.3543 32.3003 23.4658 32.3003 23.4658 32.4144C23.4658 32.5286 23.41 32.5286 23.1313 32.5857C22.741 32.6998 22.4065 32.8711 22.295 33.0994C22.0162 33.6703 21.9047 36.1819 21.9605 38.8077L22.0162 40.406H21.7932C21.626 40.406 21.5145 40.3489 20.957 39.721C20.6224 39.3215 19.6747 38.351 18.8941 37.4948C18.1136 36.6386 17.1101 35.6111 16.7198 35.2115C16.3296 34.7548 15.9393 34.4123 15.8835 34.4123C15.8278 34.4123 15.8278 34.6977 15.8278 36.3531C15.8835 38.4652 15.9393 39.036 16.1066 39.3785C16.3296 39.8352 16.6641 40.0065 17.5561 40.1206C17.9464 40.1777 18.0579 40.2348 18.0579 40.2919C18.0579 40.406 17.9464 40.406 15.8278 40.406C13.6535 40.4631 13.542 40.4631 13.542 40.3489ZM25.0268 40.3489C25.0268 40.2919 25.0826 40.2348 25.1384 40.1777C26.2534 39.9494 26.4764 39.7781 26.5879 38.8648C26.6994 38.1798 26.6994 34.4694 26.5879 33.9557C26.4764 33.4419 26.4206 33.2136 26.2534 33.0423C26.1419 32.8711 25.6401 32.6998 25.2499 32.6428C25.0268 32.5857 24.9711 32.5857 24.9711 32.4715C24.9711 32.3573 25.0268 32.3573 27.3127 32.3573C29.487 32.3573 29.6543 32.3573 29.6543 32.4715C29.6543 32.5286 29.5427 32.5857 29.2082 32.6998C28.7065 32.814 28.3162 33.0994 28.149 33.4419C28.0374 33.7273 27.9817 33.7273 28.0374 36.2961C28.0374 38.5794 28.0374 38.9219 28.149 39.2644C28.3162 39.8352 28.7065 40.0635 29.487 40.2348C29.6543 40.2919 29.71 40.2919 29.71 40.406C29.71 40.5202 29.6543 40.5202 27.3684 40.5202C25.0826 40.4631 25.0268 40.4631 25.0268 40.3489ZM41.1391 40.3489C41.1391 40.2348 41.1949 40.2348 41.4179 40.1777C41.8082 40.1206 42.3099 39.8923 42.4214 39.7781C42.7002 39.4356 42.8117 38.6365 42.8117 36.239C42.8117 33.5561 42.7002 33.1565 42.0869 32.814C41.9197 32.6998 41.6409 32.6428 41.4736 32.5857C41.2506 32.5286 41.1391 32.5286 41.1391 32.4144C41.1391 32.3003 41.2506 32.3003 44.5957 32.3003H48.0524L47.9966 32.4144C47.9966 32.4715 47.9409 32.9853 47.9409 33.499V34.4694H47.7736C47.6621 34.4694 47.6064 34.4123 47.6064 34.4123C47.4391 33.7844 47.3276 33.5561 47.0488 33.2707C46.6028 32.814 46.2683 32.6998 45.0975 32.6998H44.2055V35.8965H44.8745C45.7108 35.8965 46.3241 35.8394 46.4356 35.6682C46.4913 35.6111 46.6028 35.3827 46.6586 35.1544C46.7701 34.8119 46.8258 34.6977 46.9373 34.6977C47.0488 34.6977 47.0488 34.6977 47.0488 35.4398C47.0488 35.8394 47.0488 36.5815 46.9931 37.0952C46.9373 37.8944 46.9373 38.0086 46.8258 38.0086C46.7701 38.0086 46.7143 37.9515 46.6586 37.7231C46.6028 37.2665 46.4356 36.9811 46.1011 36.8098C45.878 36.6956 45.7108 36.6956 44.986 36.6956H44.094V38.0086C44.094 39.5498 44.1497 39.721 44.6515 39.9494C44.9303 40.0635 45.0418 40.1206 45.5435 40.1206C46.1011 40.1206 46.1568 40.1206 46.5471 39.8923C47.2161 39.5498 47.7736 38.9219 48.1081 37.9515C48.2196 37.6661 48.2754 37.5519 48.3869 37.5519C48.4426 37.5519 48.4984 37.609 48.4984 37.609C48.4984 37.8373 48.1081 39.664 47.9409 40.1206L47.8294 40.4631H44.4285C41.1949 40.4631 41.1391 40.4631 41.1391 40.3489ZM68.0673 40.3489C68.0673 40.2919 68.123 40.2348 68.2345 40.1777C69.0708 40.0065 69.3496 39.8352 69.5168 39.4356C69.6841 38.979 69.7398 37.9515 69.7398 35.8965C69.6841 33.8415 69.6841 33.4419 69.4053 33.0423C69.2938 32.8711 68.7921 32.6428 68.346 32.5857C68.1788 32.5286 68.123 32.5286 68.123 32.4144C68.123 32.3003 68.2345 32.3003 70.4646 32.3003C72.6947 32.3003 72.8062 32.3003 72.8062 32.4144C72.8062 32.5286 72.7504 32.5286 72.4717 32.5857C71.8027 32.7569 71.4124 33.0423 71.2451 33.5561C71.1336 33.8986 71.1336 38.1227 71.2451 38.8648C71.3566 39.664 71.6354 39.8923 72.4159 40.1206C72.8062 40.2348 72.9177 40.2348 72.9177 40.3489C72.9177 40.4631 72.8062 40.4631 70.5761 40.4631C68.0673 40.4631 68.0673 40.4631 68.0673 40.3489ZM75.7053 40.3489C75.7053 40.2348 75.761 40.2348 75.9283 40.1777C76.3743 40.1206 76.9318 39.8923 77.0433 39.721C77.1548 39.6069 77.2663 39.3785 77.3221 39.1502C77.4336 38.8077 77.4336 38.4081 77.4336 35.8394V32.9282H76.6531C75.6495 32.9282 75.2593 33.0423 75.0363 33.3848C74.869 33.6132 74.646 34.2411 74.5902 34.6977C74.5902 34.9261 74.5345 34.9832 74.423 34.9832C74.3672 34.9832 74.3115 34.9261 74.2557 34.9261C74.2 34.869 74.3115 33.2707 74.3672 32.6428L74.423 32.4144H81.8937L81.9495 33.5561C82.0052 34.184 82.061 34.7548 82.061 34.8119C82.1168 34.9261 82.061 34.9832 81.9495 34.9261C81.7822 34.9261 81.7822 34.869 81.6707 34.4694C81.4477 33.6703 81.169 33.2707 80.6672 33.0994C80.3884 33.0423 79.5522 32.9853 79.0504 32.9853H78.8831V35.7823C78.8831 39.664 78.9389 39.8352 79.8309 40.1206C79.9982 40.1777 80.2212 40.2348 80.3884 40.2348C80.6115 40.2919 80.6672 40.2919 80.6672 40.406C80.6672 40.5202 80.6114 40.5202 78.2141 40.5202C75.8168 40.4631 75.7053 40.4631 75.7053 40.3489ZM85.2946 40.3489C85.2946 40.2348 85.3504 40.2348 85.5176 40.1777C86.2981 40.0635 86.7442 39.7781 86.9114 39.3215C86.9672 39.2073 87.0229 38.8077 87.0229 38.294L87.0787 37.4948L86.7999 36.9811C86.0194 35.554 84.7371 33.5561 84.2911 33.0994C84.0681 32.8711 83.622 32.6998 83.2875 32.5857C83.0645 32.5286 83.0088 32.5286 83.0088 32.4144C83.0088 32.3003 83.0645 32.3003 85.0716 32.3003C87.0229 32.3003 87.1344 32.3003 87.1344 32.4144C87.1344 32.5286 87.0787 32.5286 86.8557 32.5857C86.6884 32.6428 86.4654 32.7569 86.4096 32.814C86.0751 33.0994 86.1866 33.4419 87.3574 35.2686C88.2495 36.6386 88.0822 36.5815 88.6955 35.4398C89.1415 34.5265 89.5317 33.6132 89.5317 33.2707C89.5317 32.9282 89.4202 32.814 89.03 32.6428C88.8627 32.5857 88.7512 32.5286 88.7512 32.4144C88.7512 32.3003 88.807 32.3003 90.368 32.3003C91.9291 32.3003 91.9848 32.3003 91.9848 32.4144C91.9848 32.5286 91.8733 32.5286 91.5946 32.6428C91.0928 32.7569 90.7025 33.0994 90.368 33.5561C90.0335 33.9557 89.4202 35.1544 88.8627 36.3531L88.4725 37.1523V38.0656C88.4725 39.0931 88.584 39.4356 88.8627 39.721C89.0857 39.8923 89.5875 40.1206 89.922 40.1777C90.145 40.2348 90.2008 40.2348 90.2008 40.3489C90.2008 40.4631 90.145 40.4631 87.7477 40.4631C85.3504 40.4631 85.2946 40.4631 85.2946 40.3489ZM98.3405 40.3489C98.3405 40.2348 98.3963 40.2348 98.6193 40.1777C99.0096 40.1206 99.5113 39.8923 99.6228 39.721C99.9016 39.4356 99.9573 39.0931 99.9573 36.6956C100.013 33.2136 99.9016 32.9282 98.7308 32.6998C98.3963 32.6428 98.3405 32.5857 98.3405 32.4715C98.3405 32.3573 98.3963 32.3573 98.7866 32.3003C99.0096 32.3003 100.069 32.2432 101.128 32.3003C102.968 32.3003 103.079 32.3573 103.637 32.4715C104.752 32.7569 105.365 33.1565 105.644 33.7844C105.923 34.4123 105.811 35.4398 105.421 35.9536C105.031 36.5244 104.194 36.924 103.135 37.0952C102.41 37.2094 102.299 37.2094 102.299 37.0381C102.299 36.924 102.355 36.8669 102.689 36.8098C103.804 36.5815 104.139 36.1819 104.194 35.0973C104.194 34.6407 104.194 34.4123 104.139 34.184C104.027 33.7844 103.581 33.3278 103.191 33.0994C102.801 32.8711 102.02 32.6998 101.63 32.6998H101.351V35.8965C101.351 38.8077 101.407 39.1502 101.463 39.4356C101.63 39.9494 102.02 40.1777 102.856 40.2919C103.079 40.3489 103.135 40.349 103.135 40.4631C103.135 40.5773 103.024 40.5773 100.738 40.5773C98.3963 40.4631 98.3405 40.4631 98.3405 40.3489ZM117.519 40.3489C117.519 40.2348 117.631 40.2348 118.021 40.1206C118.69 39.9494 118.913 39.7781 119.08 39.2073C119.192 38.8648 119.192 38.4652 119.192 36.2961C119.192 33.6132 119.192 33.499 118.857 33.0994C118.69 32.8711 118.411 32.6998 117.909 32.6428C117.631 32.5857 117.519 32.5286 117.519 32.4715C117.519 32.3573 117.686 32.3573 120.92 32.3573H124.321L124.265 33.3848C124.265 33.9557 124.209 34.4694 124.209 34.5265C124.209 34.5836 124.154 34.5836 124.042 34.5836C123.931 34.5836 123.875 34.4123 123.819 34.1269C123.485 33.0423 122.871 32.7569 121.199 32.7569H120.53L120.474 33.0994C120.474 33.2707 120.418 34.0128 120.418 34.6977V35.9536L121.366 35.8965C121.979 35.8965 122.425 35.8394 122.537 35.7823C122.704 35.6682 122.871 35.3827 122.983 35.0402C123.039 34.869 123.039 34.8119 123.15 34.8119H123.317V35.9536C123.317 37.4948 123.262 38.0086 123.15 38.0086C123.094 38.0086 123.039 37.9515 122.983 37.6661C122.927 37.2665 122.76 36.9811 122.537 36.8098C122.37 36.6956 122.202 36.6956 121.422 36.6956H120.474V37.7802C120.474 38.9219 120.53 39.4356 120.697 39.721C121.032 40.2348 122.425 40.2919 123.206 39.8352C123.763 39.4927 124.321 38.6935 124.544 37.9515C124.6 37.7231 124.655 37.609 124.767 37.609C124.823 37.609 124.878 37.6661 124.878 37.7231C124.878 37.9515 124.544 39.6069 124.377 40.0635L124.265 40.5202H120.864C117.631 40.4631 117.519 40.4631 117.519 40.3489ZM10.4199 22.9958C7.35351 22.6533 4.90043 21.5687 3.06062 19.6279C2.22434 18.7716 1.72257 18.0296 1.16505 16.8879C0.328774 15.1183 -0.0057373 13.5771 -0.0057373 11.4079C-0.0057373 10.095 0.105766 9.29587 0.328774 8.2113C1.27656 4.32966 4.2314 1.41844 8.30129 0.390944C9.52783 0.105529 10.4199 -0.00863647 11.8137 -0.00863647C17.3331 -0.00863647 21.4587 2.78842 22.964 7.46922C23.8003 10.0379 23.8003 13.0063 23.0198 15.4037C22.1278 18.2008 20.1764 20.427 17.4446 21.7399C16.1623 22.3678 14.7685 22.7674 13.2632 22.9387C12.7614 23.0528 10.9216 23.0528 10.4199 22.9958ZM13.319 21.9112C16.1623 21.4545 18.0021 19.685 18.8941 16.4312C19.4517 14.3762 19.6189 11.5792 19.2844 9.23879C18.8941 6.67006 18.1694 4.90049 16.7198 3.35925C15.7163 2.27468 14.4897 1.5326 13.1517 1.1901C12.5384 1.01886 12.3712 1.01886 11.4791 1.01886C9.36058 1.01886 7.85528 1.64677 6.51723 3.07384C4.78892 4.90049 3.78539 8.43963 4.06415 12.2071C4.28716 15.6321 5.06768 17.7441 6.85174 19.6279C8.69155 21.5116 10.8659 22.3108 13.319 21.9112ZM80.2769 22.9958C80.1654 22.9958 79.8867 22.9387 79.5522 22.8816C78.8274 22.7674 77.6566 22.5391 76.9876 22.2537C73.8097 21.112 71.4124 18.6575 70.3531 15.4608C69.9629 14.205 69.7398 13.0063 69.7398 11.465C69.7398 9.98087 69.9071 8.78213 70.2974 7.58338C71.6354 3.47342 75.2035 0.676358 79.8867 0.105529C80.6114 0.0484464 82.4513 0.0484464 83.2318 0.105529C87.3017 0.562192 90.4795 2.67426 92.0963 5.98506C93.3229 8.43963 93.6574 11.465 93.0441 14.3192C92.7654 15.6892 92.1521 17.1162 91.3716 18.2579C90.9255 18.8858 89.8105 20.0845 89.253 20.5412C87.0229 22.2537 84.4583 23.0528 81.392 23.0528C80.946 22.9958 80.3884 22.9958 80.2769 22.9958ZM82.953 21.9683C86.4654 21.5687 88.5282 19.1141 89.1972 14.4333C89.3645 13.3488 89.3645 10.4946 89.1972 9.41004C88.9185 7.5263 88.361 5.92798 87.5804 4.72924C85.7406 1.93218 83.2318 0.676358 80.2769 1.13302C78.7716 1.36135 77.7123 1.8751 76.7088 2.84551C75.2035 4.27258 74.3115 6.55589 74.0327 9.46712C73.9212 10.4375 73.977 12.9492 74.1442 13.8054C74.3672 15.1754 74.646 16.2029 75.1478 17.2304C75.5938 18.1437 75.984 18.7716 76.7088 19.5708C78.4371 21.4545 80.4442 22.2537 82.953 21.9683ZM24.9711 21.9683C24.9711 21.5687 25.0268 21.5687 25.3614 21.5687C25.4729 21.5687 25.8074 21.5116 26.1419 21.4545C28.372 21.0549 29.5427 20.1987 31.2711 17.6871C32.4418 15.9746 35.0064 12.2642 35.0064 12.2071C35.0064 12.15 34.9507 11.9788 34.8392 11.8075C34.7277 11.6363 33.8914 10.2092 32.9436 8.66796C31.9958 7.12672 31.1038 5.58548 30.8808 5.30007C29.71 3.64467 28.4835 2.56009 27.0897 1.93218C26.6994 1.76093 25.6959 1.5326 25.4171 1.5326C25.0268 1.5326 24.9711 1.47552 24.9711 1.13302V0.790524H31.8843L32.4418 1.70385C32.7764 2.2176 33.9471 4.10133 35.0622 5.8709C36.1772 7.69755 37.125 9.12462 37.1808 9.12462C37.2923 9.12462 38.2958 7.5263 39.0763 6.27048C40.3029 4.2155 40.6931 3.01676 40.3586 2.44593C40.1356 1.98926 39.4108 1.64677 38.6303 1.58968L38.24 1.5326V0.847607H47.0488V1.5326H46.8258C45.9338 1.58968 44.7073 1.93218 43.9267 2.38884C43.3692 2.67426 42.3657 3.47342 42.0312 3.873C41.4179 4.61508 40.9161 5.30007 39.7453 7.1838C37.9055 10.0379 37.8498 10.095 37.9055 10.1521C37.9613 10.2663 42.6444 17.6871 42.9789 18.2008C44.2612 20.0845 45.4878 21.0549 46.9931 21.4545C47.4391 21.5687 47.6063 21.5687 48.7771 21.5687C50.2267 21.5687 51.063 21.5116 51.8992 21.2833C53.3488 20.8837 54.2408 20.1416 54.6311 18.8287L54.7983 18.315V11.465C54.7983 6.67006 54.7983 4.44383 54.7426 4.04425C54.5196 2.44593 53.9621 1.8751 52.2338 1.5326C51.8992 1.47552 51.509 1.41844 51.3975 1.36135C51.1745 1.30427 51.1745 1.30427 51.1745 1.01886V0.733441H67.3425L67.454 2.95967C67.5098 4.15841 67.5655 5.1859 67.5655 5.24299C67.5655 5.30007 67.454 5.30007 67.2868 5.30007H67.008L66.8965 4.84341C66.5062 3.07384 65.3354 2.16051 63.1611 1.81802C62.6594 1.76093 61.7673 1.70385 60.3178 1.70385L58.1435 1.64677V10.4375L60.485 10.3804C62.5479 10.3234 63.7744 10.2663 64.1089 10.1521C64.2204 10.095 64.2204 10.2663 64.2204 12.6638V15.2325H63.9974C63.7186 15.2325 63.6629 15.1754 63.6629 14.7758C63.6629 14.0337 63.3284 13.0063 62.9939 12.6067C62.3806 11.9788 61.5443 11.7504 59.4257 11.8646L58.1992 11.9217V15.575C58.1992 19.4566 58.255 19.685 58.5337 20.3129C58.701 20.6554 59.147 21.0549 59.5373 21.2262C59.816 21.3404 61.0425 21.6258 61.9346 21.7399C62.1576 21.797 62.1576 21.797 62.1576 22.0824V22.3678H41.4179L38.5746 17.8012C37.0135 15.2896 35.6755 13.2346 35.6755 13.2346C35.6197 13.2346 35.2294 13.6913 34.2817 15.0612C32.9436 16.945 31.8843 18.8858 31.7171 19.6279C31.5498 20.5412 32.1073 21.1691 33.6126 21.6829L34.0586 21.8541V22.4249H24.9153V21.9683H24.9711ZM98.452 19.3995C98.452 17.8012 98.5078 14.6046 98.5635 12.2071C98.6193 7.29797 98.6193 3.70175 98.5078 3.188C98.2848 2.38884 97.9503 1.8751 97.3928 1.70385C97.2255 1.64677 96.8352 1.58968 96.5007 1.58968L95.8875 1.5326L95.9432 1.24719C95.9432 1.07594 95.999 0.961772 95.999 0.961772C96.0547 0.904689 100.125 0.790524 102.132 0.790524C104.585 0.733441 105.7 0.790524 106.982 1.01886C109.881 1.47552 111.665 2.61718 112.279 4.44383C112.502 5.12882 112.557 6.27048 112.39 7.01256C111.888 9.01046 110.216 10.6659 107.763 11.465L107.261 11.6363L107.428 11.8646C107.54 11.9788 108.041 12.6067 108.599 13.2346C113.171 18.5433 116.125 21.112 118.3 21.5116C118.746 21.5687 119.415 21.5687 120.14 21.3974C121.422 21.112 122.258 20.3699 122.537 19.057C122.76 18.2579 122.76 17.5729 122.76 10.9513C122.76 4.95757 122.704 4.38674 122.648 3.93008C122.425 2.95967 121.979 2.38884 121.255 1.98926C120.809 1.76093 119.805 1.47552 119.303 1.41844L118.969 1.36135V0.790524L120.251 0.733441C123.206 0.619275 128.502 0.619275 129.617 0.676358C134.412 1.01886 137.646 2.16051 139.764 4.38674C141.492 6.2134 142.273 8.61088 142.161 11.6363C142.106 12.7779 142.05 13.3488 141.715 14.3192C140.545 17.9154 137.032 20.8837 132.907 21.797C131.68 22.0824 131.457 22.0824 123.652 22.0824C116.739 22.0824 116.07 22.0824 115.456 21.9683C113.951 21.7399 112.669 21.0549 110.606 19.6279C109.101 18.5433 107.874 17.3446 106.425 15.575C105.756 14.7758 103.414 11.5792 103.358 11.4079C103.302 11.3509 103.358 11.2938 103.581 11.2938C103.971 11.2938 104.864 11.0084 105.477 10.6659C106.759 9.98087 107.874 8.83921 108.376 7.81172C108.655 7.1838 108.766 6.55589 108.71 5.92798C108.543 4.67216 107.986 3.64467 107.038 2.90259C105.979 2.04635 104.529 1.58968 102.912 1.5326L102.187 1.47552L102.132 3.5305C102.02 8.15421 102.02 18.2008 102.076 18.7716C102.299 20.4841 102.856 20.9408 105.142 21.2833C106.257 21.4545 106.146 21.3974 106.146 21.797V22.1395H98.5635L98.452 19.3995ZM131.123 21.1691C134.523 20.5983 136.921 18.1437 137.701 14.3192C137.924 13.2917 137.98 11.2367 137.813 10.1521C137.59 8.49671 137.144 7.24089 136.363 6.04215C134.858 3.75883 132.516 2.33176 129.394 1.8751C128.558 1.76093 126.774 1.70385 126.272 1.81802L125.938 1.8751V10.4375C125.938 18.1437 125.993 19.057 126.049 19.3425C126.328 20.3129 126.83 20.7695 127.666 20.9979C128.502 21.3404 130.008 21.3404 131.123 21.1691Z" fill="black"/>
</g>
<defs>
<clipPath id="clip0">
<rect width="142" height="41" fill="white"/>
</clipPath>
</defs>
</svg>
