<svg width="74" height="86" viewBox="0 0 74 86" fill="none" xmlns="http://www.w3.org/2000/svg">
<path fill-rule="evenodd" clip-rule="evenodd" d="M63.1277 23.2645C58.2008 12.5979 44.5406 10.6981 33.3601 5.8417C21.4003 0.646808 9.95423 -10.2843 -2.4095 -5.20265C-15.2775 0.0862193 -18.1594 15.3828 -21.2026 28.2675C-24.35 41.593 -29.5896 57.5826 -19.4257 66.8421C-9.56281 75.8275 6.35087 66.804 20.2677 66.0481C34.0677 65.2985 49.9094 72.1803 59.5549 62.5519C69.7498 52.3753 68.8973 35.7552 63.1277 23.2645Z" fill="url(#paint0_radial)"/>
<path fill-rule="evenodd" clip-rule="evenodd" d="M58.1277 15.2645C53.2008 4.59793 39.5406 2.69812 28.3601 -2.1583C16.4003 -7.35319 4.95423 -18.2843 -7.4095 -13.2027C-20.2775 -7.91378 -23.1594 7.3828 -26.2026 20.2675C-29.35 33.593 -34.5896 49.5826 -24.4257 58.8421C-14.5628 67.8275 1.35087 58.804 15.2677 58.0481C29.0677 57.2985 44.9094 64.1803 54.5549 54.5519C64.7498 44.3753 63.8973 27.7552 58.1277 15.2645Z" fill="url(#paint1_radial)" fill-opacity="0.13"/>
<defs>
<radialGradient id="paint0_radial" cx="0" cy="0" r="1" gradientUnits="userSpaceOnUse" gradientTransform="translate(-1.5 17) rotate(34.8545) scale(68.2422 60.5779)">
<stop stop-color="#E2D7E2"/>
<stop offset="1" stop-color="#FEE9FF"/>
</radialGradient>
<radialGradient id="paint1_radial" cx="0" cy="0" r="1" gradientUnits="userSpaceOnUse" gradientTransform="translate(-6.5 9) rotate(34.8545) scale(68.2422 60.5779)">
<stop stop-color="#C03B89"/>
<stop offset="1" stop-color="#972F9C"/>
</radialGradient>
</defs>
</svg>
