<svg width="12" height="9" viewBox="0 0 12 9" fill="none" xmlns="http://www.w3.org/2000/svg">
<path d="M11.3873 2.18956C11.2577 1.7076 10.8777 1.32768 10.3958 1.19791C9.51546 0.957031 5.994 0.957031 5.994 0.957031C5.994 0.957031 2.47268 0.957031 1.59233 1.18877C1.11971 1.31841 0.730453 1.70767 0.600815 2.18956C0.369141 3.06984 0.369141 4.89542 0.369141 4.89542C0.369141 4.89542 0.369141 6.73021 0.600815 7.60129C0.730591 8.08317 1.11044 8.4631 1.5924 8.59287C2.48195 8.83382 5.99414 8.83382 5.99414 8.83382C5.99414 8.83382 9.51546 8.83382 10.3958 8.60207C10.8778 8.47237 11.2577 8.09244 11.3875 7.61056C11.6191 6.73021 11.6191 4.90469 11.6191 4.90469C11.6191 4.90469 11.6283 3.06984 11.3873 2.18956ZM4.87285 6.58196V3.20888L7.80112 4.89542L4.87285 6.58196Z" fill="white"/>
</svg>
